<svg width="252" height="245" viewBox="0 0 252 245" fill="none" xmlns="http://www.w3.org/2000/svg">
<g clip-path="url(#clip0_140_55)">
<g clip-path="url(#clip1_140_55)">
<path d="M109.25 111.19C109.087 111.289 108.912 111.366 108.73 111.42C108.487 111.576 108.204 111.659 107.915 111.659C107.626 111.659 107.343 111.576 107.1 111.42C107.1 111.58 107.1 111.71 107.17 111.86C107.36 112.54 107.17 112.92 106.72 113.08C106.504 113.168 106.263 113.172 106.044 113.09C105.826 113.009 105.646 112.848 105.54 112.64C105.446 112.385 105.455 112.104 105.562 111.854C105.67 111.605 105.87 111.406 106.12 111.3C106.28 111.21 106.51 111.3 106.68 111.1C106.365 110.773 106.164 110.353 106.108 109.902C106.052 109.452 106.143 108.995 106.368 108.601C106.594 108.206 106.941 107.896 107.358 107.715C107.774 107.535 108.238 107.494 108.68 107.6C109.047 107.638 109.394 107.788 109.673 108.029C109.952 108.271 110.15 108.592 110.24 108.95C110.324 109.38 110.274 109.825 110.097 110.226C109.92 110.626 109.624 110.963 109.25 111.19Z" fill="white"/>
<path d="M197.07 171.31C196.583 169 195.89 166.737 195 164.55C193.632 161.179 192.011 157.916 190.15 154.79C188.904 152.829 187.517 150.96 186 149.2C184.38 147.2 183 145.03 181.35 143.1C179.35 140.76 177.35 138.37 175.29 136.1C173.501 134.175 171.851 132.127 170.35 129.97C169.44 128.57 168.48 127.21 167.55 125.83C167.284 125.494 167.129 125.083 167.107 124.654C167.086 124.226 167.199 123.801 167.43 123.44C167.86 122.71 168.19 121.91 168.65 121.2C170.32 118.63 171.86 116 173.34 113.33C174.501 111.138 175.961 109.118 177.68 107.33C179.575 105.393 181.252 103.253 182.68 100.95C183.519 99.5608 184.19 98.0771 184.68 96.5301C185.52 94.0101 183.68 90.3901 181.08 89.5301C179.571 89.041 178.004 88.7518 176.42 88.6701C172.89 88.5139 169.36 88.995 166 90.0901C165.34 90.3001 165 90.2101 164.66 89.6701C164.189 89.0021 163.627 88.403 162.99 87.8901C161.732 86.8447 160.394 85.8986 158.99 85.0601C155.772 82.9537 152.141 81.5593 148.34 80.9701C146.861 80.6304 145.327 80.6099 143.84 80.9101C143.541 80.9938 143.224 80.9809 142.933 80.8731C142.642 80.7654 142.392 80.5683 142.22 80.3101C140.328 78.1478 138.131 76.2715 135.7 74.7401C134.528 73.9816 133.269 73.3672 131.95 72.9101C130.569 72.36 129.029 72.365 127.652 72.9241C126.275 73.4832 125.167 74.5531 124.56 75.9101C124.376 76.2911 124.213 76.6817 124.07 77.0801C123.473 78.7929 123.113 80.5795 123 82.3901C122.74 85.9901 122.16 89.5601 122.32 93.1801C122.32 93.1801 122.32 93.2901 122.21 93.4201C121.968 92.965 121.848 92.4553 121.86 91.9401C121.747 90.4705 121.554 89.0083 121.28 87.5601C121.18 86.9801 120.82 86.5101 120.76 85.9101C120.375 82.9927 119.674 80.1259 118.67 77.3601C118.357 76.0337 117.718 74.8065 116.81 73.7901C116.524 73.3916 116.096 73.1179 115.614 73.0249C115.133 72.9319 114.634 73.0268 114.22 73.2901C113.659 73.548 113.12 73.8524 112.61 74.2001C111.533 74.9479 110.529 75.7949 109.61 76.7301C107.448 78.8494 105.462 81.1402 103.67 83.5801C102.93 84.5801 103.24 84.4501 101.97 84.1101C101.49 83.9801 100.97 83.8101 100.53 83.6901C97.5359 83.0025 94.4337 82.9277 91.41 83.4701C87.0063 84.0347 82.8383 85.7835 79.35 88.5301C79.2857 88.6102 79.2054 88.676 79.1142 88.7234C79.023 88.7708 78.923 88.7986 78.8204 88.8052C78.7179 88.8118 78.6151 88.797 78.5186 88.7616C78.4221 88.7263 78.3341 88.6713 78.26 88.6001C76.2706 87.2818 74.177 86.1279 72 85.1501C69.2805 83.8277 66.4186 82.8211 63.47 82.1501C62.8213 81.9601 62.1398 81.909 61.47 82.0001C60.73 82.1401 60.34 82.4701 60.28 83.2001C60.16 84.6301 59.84 86.0301 59.76 87.4701C59.6064 90.4527 59.774 93.4432 60.26 96.3901C60.9237 101.041 62.4643 105.524 64.8 109.6C65.0663 110.028 65.2464 110.503 65.33 111C65.7229 113.729 65.7967 116.494 65.55 119.24C65.3496 121.095 65.5023 122.972 66 124.77C66.256 126.071 66.8258 127.29 67.66 128.32C69.0287 129.865 70.7863 131.015 72.75 131.65C73.02 131.73 73.32 131.75 73.34 132.1C73.3457 132.237 73.312 132.373 73.2429 132.492C73.1738 132.611 73.0722 132.707 72.95 132.77C71.3188 133.852 69.8847 135.205 68.71 136.77C66.6491 139.108 64.4053 141.278 62 143.26C61.3 143.87 60.58 144.47 59.94 145.14C57.76 147.39 55.54 149.62 53.54 152.04C52.3099 153.437 51.1962 154.932 50.21 156.51C46.99 162.07 44.41 167.88 43.58 174.35C42.8874 178.405 42.6926 182.528 43 186.63C43.1785 189.38 43.9859 192.052 45.36 194.44C46.03 195.44 46.74 196.5 47.46 197.51C47.8885 198.211 48.5507 198.739 49.33 199C49.8757 199.142 50.3623 199.454 50.72 199.89C52.84 201.89 55.25 202.97 58.21 201.89C58.3265 201.826 58.4572 201.793 58.59 201.793C58.7228 201.793 58.8535 201.826 58.97 201.89C60.6432 202.954 62.629 203.416 64.6 203.2C65.5807 203.213 66.5393 202.909 67.3324 202.332C68.1256 201.755 68.7106 200.937 69 200C69.63 197.6 71.29 196.22 73.26 195C73.5331 194.853 73.8134 194.719 74.1 194.6C74.2157 194.523 74.3571 194.494 74.4937 194.521C74.6302 194.547 74.751 194.626 74.83 194.74C74.8767 194.803 74.9099 194.874 74.9276 194.951C74.9454 195.027 74.9473 195.106 74.9332 195.183C74.9192 195.26 74.8894 195.333 74.8459 195.398C74.8023 195.463 74.7458 195.518 74.68 195.56C74.4277 195.737 74.1637 195.898 73.89 196.04C72.2941 196.856 71.0216 198.188 70.28 199.82C69.8283 200.83 69.7599 201.969 70.0875 203.026C70.4151 204.082 71.1163 204.983 72.06 205.56C72.8667 206.04 73.8056 206.25 74.74 206.16C75.05 206.16 75.22 206.04 75.21 205.67C75.2629 203.842 75.768 202.055 76.68 200.47C76.7679 200.301 76.8753 200.144 77 200C77.0653 199.901 77.1671 199.832 77.2833 199.807C77.3994 199.783 77.5204 199.806 77.62 199.87C77.7025 199.923 77.765 200.002 77.7976 200.094C77.8302 200.187 77.8311 200.287 77.8 200.38C77.67 200.75 77.5 201.1 77.36 201.45C76.627 202.954 76.2831 204.618 76.36 206.29C76.3707 206.579 76.4653 206.859 76.6322 207.095C76.7991 207.331 77.0312 207.514 77.3 207.62C78.2364 208.1 79.291 208.302 80.3385 208.201C81.3861 208.1 82.3827 207.701 83.21 207.05C83.4484 206.885 83.6479 206.669 83.7947 206.419C83.9415 206.168 84.032 205.889 84.06 205.6C84.3279 204.142 84.1538 202.638 83.56 201.28C83.4185 200.955 83.2982 200.621 83.2 200.28C83.1722 200.23 83.1549 200.174 83.1489 200.117C83.143 200.06 83.1485 200.002 83.1653 199.947C83.1821 199.892 83.2097 199.841 83.2466 199.797C83.2835 199.753 83.3289 199.716 83.38 199.69C83.71 199.51 83.88 199.69 84.03 199.96C84.1107 200.093 84.1777 200.234 84.23 200.38C85.0762 202.049 85.3537 203.949 85.02 205.79C84.88 206.51 85.02 206.62 85.66 206.71C86.6667 206.86 87.6943 206.659 88.57 206.14C89.6586 205.423 90.5297 204.421 91.0886 203.243C91.6475 202.065 91.8728 200.757 91.74 199.46C91.6756 199.156 91.5459 198.869 91.36 198.62C90.3989 197.189 89.6353 195.635 89.09 194C87.3232 188.209 86.3971 182.194 86.34 176.14C86.2015 171.975 86.4223 167.807 87 163.68C87.297 161.256 87.8227 158.865 88.57 156.54C88.71 156.15 88.73 155.45 89.39 155.66C90.05 155.87 89.61 156.41 89.51 156.77C88.4301 160.815 87.7996 164.967 87.63 169.15C87.2361 175.931 87.7235 182.734 89.08 189.39C89.5715 191.939 90.3917 194.413 91.52 196.75C92.11 197.93 92.13 197.96 93.36 197.67C95.9633 197.068 98.4752 196.123 100.83 194.86C101.154 194.702 101.437 194.468 101.654 194.18C101.871 193.892 102.017 193.556 102.08 193.2C102.65 190.63 103.23 188.07 103.75 185.49C104.23 183.09 104.56 180.68 104.99 178.28C105.42 175.88 105.75 173.46 105.99 171.03C106.26 167.63 106.64 164.24 106.63 160.83C106.63 160.05 106.63 159.28 106.63 158.5C106.63 158.13 106.5 157.65 107.08 157.63C107.66 157.61 107.56 158.03 107.59 158.39C107.585 158.467 107.585 158.543 107.59 158.62C107.704 160.618 107.704 162.622 107.59 164.62C107.227 170.991 106.492 177.335 105.39 183.62C105.2 184.73 104.91 185.82 104.73 186.92C104.536 188.268 104.265 189.603 103.92 190.92C103.4 192.78 102.92 194.6 103.53 196.59C104.53 199.76 105.53 202.86 108.02 205.26C108.156 205.396 108.268 205.556 108.35 205.73C108.517 206.104 108.758 206.439 109.059 206.716C109.36 206.993 109.714 207.205 110.1 207.34C110.885 207.66 111.686 207.941 112.5 208.18C113.254 208.391 114.055 208.36 114.79 208.09C115.003 208.057 115.207 207.982 115.391 207.87C115.575 207.757 115.734 207.609 115.86 207.434C115.986 207.259 116.075 207.06 116.123 206.85C116.171 206.64 116.177 206.422 116.14 206.21C116.158 205.198 115.953 204.194 115.54 203.27C115.35 202.85 115.18 202.42 115.01 201.98C114.986 201.926 114.973 201.868 114.972 201.81C114.971 201.751 114.982 201.692 115.004 201.638C115.027 201.584 115.06 201.534 115.102 201.494C115.145 201.453 115.195 201.421 115.25 201.4C115.352 201.343 115.471 201.327 115.585 201.355C115.698 201.383 115.796 201.452 115.86 201.55C115.949 201.677 116.03 201.811 116.1 201.95C116.95 203.44 117.337 205.149 117.21 206.86C117.21 207.28 117.27 207.41 117.66 207.46C118.507 207.591 119.373 207.521 120.188 207.255C121.002 206.989 121.743 206.535 122.35 205.93C122.6 205.711 122.784 205.426 122.881 205.108C122.978 204.79 122.985 204.452 122.9 204.13C122.47 202.67 122.2 201.13 120.7 200.2C120.628 200.17 120.564 200.123 120.514 200.063C120.463 200.004 120.427 199.934 120.409 199.858C120.39 199.782 120.39 199.703 120.407 199.627C120.425 199.551 120.46 199.48 120.51 199.42C120.71 199.14 121 199.25 121.24 199.37C121.808 199.632 122.28 200.066 122.59 200.61C123.346 201.831 123.849 203.191 124.07 204.61C126.19 204.61 126.94 203.54 127.39 200.05C127.503 200.04 127.617 200.04 127.73 200.05C128.731 200.305 129.781 200.291 130.775 200.01C131.769 199.729 132.671 199.191 133.39 198.45C133.87 198.02 134.22 197.45 134.98 197.96C135.1 198.04 135.36 197.96 135.54 197.91C136.253 197.721 136.944 197.456 137.6 197.12C139.041 196.45 140.185 195.274 140.815 193.816C141.446 192.358 141.519 190.719 141.02 189.21C140.92 188.85 140.64 188.52 140.81 188.03C143.508 189.21 146.384 189.933 149.32 190.17C152.303 190.45 155.313 190.182 158.2 189.38C157.538 190.339 156.985 191.369 156.55 192.45C155.36 196.01 157.03 198.85 160.72 199.45C160.945 199.508 161.178 199.531 161.41 199.52C161.654 199.483 161.903 199.524 162.122 199.637C162.341 199.75 162.519 199.93 162.63 200.15C163.048 200.762 163.624 201.251 164.296 201.564C164.968 201.877 165.712 202.004 166.45 201.93C167.23 201.904 167.995 201.712 168.695 201.367C169.395 201.022 170.014 200.532 170.51 199.93C170.574 199.816 170.663 199.719 170.769 199.644C170.876 199.569 170.999 199.519 171.127 199.498C171.256 199.477 171.388 199.485 171.513 199.522C171.638 199.559 171.753 199.623 171.85 199.71C172.32 199.985 172.855 200.13 173.4 200.13C173.945 200.13 174.48 199.985 174.95 199.71C175.781 199.379 176.524 198.86 177.121 198.194C177.718 197.528 178.152 196.732 178.39 195.87C178.405 195.72 178.479 195.583 178.595 195.487C178.711 195.392 178.86 195.346 179.01 195.36C179.789 195.309 180.531 195.011 181.13 194.51C181.241 194.407 181.378 194.337 181.526 194.307C181.674 194.277 181.828 194.288 181.97 194.34C182.956 194.672 184.028 194.647 184.998 194.271C185.968 193.894 186.775 193.19 187.28 192.28C187.364 192.134 187.49 192.018 187.642 191.944C187.794 191.871 187.964 191.845 188.13 191.87C189.235 191.866 190.301 191.461 191.13 190.73C192.324 189.838 193.158 188.546 193.48 187.09C193.824 185.457 194.506 183.915 195.48 182.56C195.91 182 196.247 181.376 196.48 180.71C197.462 177.676 197.665 174.443 197.07 171.31ZM83.27 107.94C83.463 107.94 83.6538 107.981 83.83 108.06L84.11 108.19C84.3996 108.357 84.6428 108.593 84.8174 108.878C84.9921 109.163 85.0927 109.486 85.11 109.82C85.1159 110.378 84.9146 110.918 84.5451 111.335C84.1756 111.753 83.6642 112.018 83.11 112.08C82.9027 112.092 82.6951 112.061 82.5 111.99C82.3388 111.938 82.1869 111.86 82.05 111.76C81.6992 111.491 81.4408 111.12 81.3106 110.697C81.1804 110.275 81.1848 109.822 81.3233 109.403C81.4617 108.983 81.7274 108.616 82.0834 108.354C82.4393 108.092 82.868 107.948 83.31 107.94H83.27ZM68.49 103.83C68.1686 103.667 67.8579 103.483 67.56 103.28C66.6313 102.7 65.9264 101.822 65.56 100.79C65.03 99.3001 64.69 97.7901 64.21 96.2401C63.4678 93.7535 62.9425 91.2073 62.64 88.6301C62.5283 87.7474 62.4615 86.8595 62.44 85.9701C62.44 85.1801 62.81 84.8801 63.61 84.9701C64.0028 85.0137 64.3889 85.1044 64.76 85.2401C65.35 85.4501 65.91 85.7401 66.49 85.9601C68.0214 86.6165 69.4767 87.4381 70.83 88.4101C71.07 88.5601 71.3 88.7301 71.53 88.9001C73.22 90.1501 74.62 91.7201 76.2 93.0901C76.7105 93.6194 77.1661 94.199 77.56 94.8201C78.38 95.9301 77.72 98.2001 76.39 98.8801C75.9365 99.9093 75.271 100.831 74.4371 101.586C73.6031 102.341 72.6193 102.911 71.55 103.26C70.9963 103.589 70.3912 103.822 69.76 103.95C69.4299 104.048 69.076 104.027 68.76 103.89L68.49 103.83ZM81.17 115.34C80.2803 115.096 79.4536 114.664 78.746 114.072C78.0385 113.48 77.4669 112.743 77.07 111.91C76.7276 111.303 76.6071 110.596 76.7294 109.91C76.8516 109.224 77.209 108.601 77.74 108.15C78.97 106.86 79.39 106.81 81.42 106.48C80.5757 107.078 79.9281 107.914 79.5595 108.88C79.191 109.847 79.118 110.902 79.35 111.91C79.4353 112.6 79.6937 113.257 80.101 113.82C80.5084 114.383 81.0516 114.833 81.68 115.13C82.27 115.22 82.68 115.69 83.19 115.9C82.52 115.71 81.76 115.84 81.17 115.34ZM84.17 112.88C84.1598 112.754 84.1766 112.628 84.2194 112.509C84.2623 112.391 84.3301 112.283 84.4183 112.193C84.5064 112.103 84.6129 112.033 84.7306 111.987C84.8482 111.942 84.9742 111.922 85.1 111.93C85.2716 111.917 85.4439 111.948 85.6 112.02C85.7154 112.058 85.8236 112.116 85.92 112.19C86.0172 112.267 86.0962 112.364 86.1516 112.474C86.2069 112.585 86.2371 112.706 86.24 112.83C86.2156 113.087 86.1024 113.327 85.9199 113.51C85.7374 113.692 85.497 113.806 85.24 113.83C85.0991 113.834 84.9589 113.807 84.83 113.75C84.7789 113.737 84.7312 113.713 84.69 113.68C84.5473 113.598 84.427 113.482 84.3397 113.343C84.2525 113.203 84.2011 113.044 84.19 112.88H84.17ZM90.25 114.88C89.398 115.405 88.4365 115.727 87.44 115.82C86.5712 116.105 85.6408 116.147 84.75 115.94L86.26 115.66C88.35 114.78 89.2 113.11 89.19 110.71C90.0642 111.651 90.5961 112.86 90.7 114.14C90.76 114.47 90.53 114.66 90.27 114.85L90.25 114.88ZM121.82 107.46C122.25 104.705 122.458 101.919 122.44 99.1301C122.359 97.6722 122.706 96.2224 123.44 94.9601C123.902 94.0296 124.122 92.9979 124.08 91.9601C124.008 87.7753 124.383 83.5949 125.2 79.4901C125.454 78.2538 125.924 77.0722 126.59 76.0001C127.48 74.6201 128.49 74.1101 129.72 74.4601L129.96 74.5401C130.311 74.6681 130.647 74.8359 130.96 75.0401C131.172 75.1709 131.376 75.3145 131.57 75.4701C133.025 76.5863 134.282 77.9384 135.29 79.4701C136.681 81.5428 137.899 83.7269 138.93 86.0001C139.14 86.4601 139.34 86.9201 139.58 87.3601C139.685 87.6042 139.854 87.8151 140.07 87.9701H140.13C140.213 88.0037 140.302 88.0168 140.391 88.0081C140.48 87.9994 140.565 87.9692 140.64 87.9201C141.14 87.6601 141.06 87.2201 140.89 86.8201C140.57 86.0301 140.2 85.2601 139.89 84.4901C138.716 81.9207 137.31 79.4638 135.69 77.1501C135.248 76.7315 134.861 76.2576 134.54 75.7401C135.118 75.9259 135.643 76.2484 136.07 76.6801C139.049 78.6918 141.598 81.2751 143.57 84.2801C143.95 84.8601 144.34 85.4301 144.73 86.0101C145.4 85.9301 145.55 85.4901 145.36 84.9301C145.17 84.3701 144.92 84.0301 144.73 83.5701C144.492 83.2178 144.332 82.8189 144.26 82.4001C145.89 81.8301 149.75 82.3401 152.72 83.4001C153.596 83.6817 154.441 84.0537 155.24 84.5101C156.867 85.3054 158.437 86.2108 159.94 87.2201C160.13 87.3401 160.32 87.4801 160.5 87.6201C161.833 88.5887 163.036 89.7246 164.08 91.0001C162.795 91.5736 161.555 92.2421 160.37 93.0001C160.357 93.0342 160.337 93.065 160.31 93.0901C159.97 93.4601 159.54 93.8701 160.05 94.3701C160.095 94.416 160.145 94.4563 160.2 94.4901C160.254 94.5289 160.315 94.5561 160.38 94.5701C160.69 94.6301 161 94.3901 161.28 94.1701C163 92.839 164.974 91.8727 167.08 91.3301C170.194 90.5153 173.418 90.2047 176.63 90.4101C177.182 90.4465 177.727 90.5575 178.25 90.7401C178.413 90.7912 178.573 90.8513 178.73 90.9201C177.98 91.1201 177.23 91.3701 176.46 91.5201C175.671 91.6967 174.898 91.9409 174.15 92.2501C170.988 93.427 168.001 95.0283 165.27 97.0101C164.948 97.224 164.649 97.4721 164.38 97.7501C164.279 97.8706 164.224 98.0228 164.224 98.1801C164.224 98.3373 164.279 98.4895 164.38 98.6101C164.422 98.6617 164.473 98.7057 164.53 98.7401C164.586 98.7994 164.66 98.8381 164.74 98.8501C164.904 98.8865 165.076 98.8579 165.22 98.7701C165.796 98.4693 166.353 98.1354 166.89 97.7701C169.532 95.9294 172.416 94.4622 175.46 93.4101C177.365 92.7557 179.337 92.3196 181.34 92.1101C181.711 92.042 182.093 92.0696 182.45 92.1901C182.62 92.2427 182.777 92.3313 182.91 92.4501C183.229 92.776 183.433 93.1975 183.49 93.6501C183.79 95.0575 183.566 96.526 182.86 97.7801C181.223 100.662 179.26 103.346 177.01 105.78C176.06 106.853 175.257 108.047 174.62 109.33C174.497 109.572 174.339 109.795 174.15 109.99C173.319 110.718 172.595 111.559 172 112.49C171.31 113.74 170.59 114.98 169.95 116.25C169.034 117.872 168.033 119.444 166.95 120.96C166.231 122.01 165.694 123.173 165.36 124.4C164.982 125.625 164.293 126.731 163.36 127.61C161.325 129.596 158.764 130.96 155.98 131.54C151.043 132.687 145.906 132.663 140.98 131.47C139.361 131.114 137.764 130.66 136.2 130.11C133.611 129.197 131.14 127.979 128.84 126.48C128.44 126.22 128.05 125.96 127.67 125.68C126.484 124.882 125.367 123.985 124.33 123C124.155 122.849 124.022 122.656 123.943 122.439C123.864 122.222 123.843 121.988 123.88 121.76C124.196 118.711 123.893 115.629 122.99 112.7C122.82 112.145 122.61 111.604 122.36 111.08C121.858 109.933 121.679 108.671 121.84 107.43L121.82 107.46ZM107.73 84.1401C109.128 81.2468 111.008 78.6125 113.29 76.3501C113.596 76.0395 113.931 75.7583 114.29 75.5101C114.402 75.4097 114.54 75.3417 114.688 75.3136C114.836 75.2854 114.989 75.298 115.13 75.3501C115.189 75.3624 115.245 75.39 115.29 75.4301C115.429 75.5423 115.539 75.6864 115.61 75.8501C116.016 76.6423 116.322 77.4821 116.52 78.3501C117.178 81.2903 117.672 84.2649 118 87.2601C118.1 88.3401 118.12 89.4201 118.14 90.5001C118.15 90.963 118.11 91.4258 118.02 91.8801C117.928 92.3769 117.7 92.8384 117.361 93.2128C117.022 93.5872 116.585 93.8598 116.1 94.0001C115.21 94.3322 114.256 94.4587 113.31 94.3701C112.352 94.445 111.389 94.3399 110.47 94.0601C110.094 93.9534 109.727 93.8197 109.37 93.6601C108.998 93.5051 108.634 93.3316 108.28 93.1401C108.119 93.1003 107.962 93.0468 107.81 92.9801C107.654 92.9183 107.506 92.8377 107.37 92.7401C106.911 92.4354 106.548 92.0067 106.324 91.504C106.099 91.0013 106.021 90.4451 106.1 89.9001C106.302 87.8995 106.854 85.9499 107.73 84.1401ZM106.08 111.23C106.208 111.201 106.342 111.201 106.47 111.23C106.635 111.237 106.8 111.26 106.96 111.3C106.66 111.003 106.432 110.641 106.291 110.243C106.151 109.845 106.103 109.42 106.15 109C106.184 108.788 106.266 108.586 106.39 108.41C106.614 108.044 106.95 107.76 107.348 107.6C107.746 107.44 108.185 107.412 108.6 107.52C108.705 107.544 108.808 107.574 108.91 107.61C109.152 107.685 109.381 107.797 109.59 107.94C109.886 108.171 110.089 108.501 110.16 108.87C110.254 109.308 110.208 109.765 110.029 110.176C109.85 110.587 109.546 110.931 109.16 111.16C108.997 111.259 108.822 111.336 108.64 111.39C108.09 111.79 107.46 111.49 106.92 111.25C106.95 111.316 106.991 111.377 107.04 111.43C107.114 111.519 107.171 111.621 107.21 111.73C107.319 111.996 107.319 112.294 107.21 112.56C107.092 112.753 106.907 112.895 106.69 112.96C106.488 113.02 106.272 113.02 106.07 112.96C105.999 112.94 105.932 112.91 105.87 112.87C105.708 112.791 105.58 112.656 105.51 112.49C105.438 112.247 105.457 111.986 105.561 111.754C105.666 111.523 105.85 111.337 106.08 111.23ZM94.59 119C94.7349 118.64 94.9924 118.336 95.324 118.134C95.6556 117.933 96.0435 117.843 96.43 117.88C96.7112 117.862 96.9933 117.899 97.26 117.99L97.48 118.07C97.6012 118.122 97.7154 118.19 97.82 118.27C97.9582 118.369 98.0736 118.497 98.1587 118.644C98.2439 118.791 98.2967 118.955 98.3137 119.124C98.3307 119.294 98.3116 119.465 98.2575 119.626C98.2034 119.787 98.1156 119.935 98 120.06C97.7726 120.417 97.481 120.729 97.14 120.98C97.004 121.113 96.833 121.204 96.647 121.243C96.461 121.282 96.2678 121.267 96.09 121.2C95.9865 121.16 95.8889 121.106 95.8 121.04L95.52 120.84L95.32 120.69C94.58 120.13 94.39 119.66 94.59 119ZM97.67 125.08C97.5754 125.024 97.4852 124.96 97.4 124.89C97.14 124.69 96.92 124.45 96.66 124.21C96.41 124.47 96.19 124.73 95.93 124.96C95.5504 125.322 95.091 125.589 94.5889 125.74C94.0868 125.891 93.5562 125.922 93.04 125.83C92.8659 125.8 92.6951 125.753 92.53 125.69C92.3827 125.63 92.2447 125.549 92.12 125.45C91.82 125.23 91.61 124.94 91.84 124.56C92.07 124.18 92.35 124.21 92.74 124.35L92.99 124.43C94.48 124.86 95.57 124.13 95.87 122.43C95.95 122.02 96.01 121.62 96.49 121.6C96.6105 121.596 96.7303 121.62 96.84 121.67H96.92C97.1155 121.812 97.2622 122.011 97.34 122.24C97.42 122.46 97.44 122.7 97.51 122.92C97.6491 123.373 97.9383 123.764 98.33 124.03C98.4953 124.147 98.6774 124.238 98.87 124.3C99.1923 124.409 99.5365 124.435 99.8717 124.378C100.207 124.32 100.522 124.18 100.79 123.97C100.886 123.88 101.003 123.814 101.13 123.78C101.257 123.745 101.391 123.741 101.52 123.77H101.6C101.675 123.828 101.74 123.899 101.79 123.98C102.07 124.42 101.71 124.7 101.42 124.98C100.992 125.29 100.495 125.489 99.9714 125.561C99.4481 125.633 98.9152 125.574 98.42 125.39C98.161 125.327 97.9095 125.237 97.67 125.12V125.08ZM107.67 115.02C106.108 115.216 104.524 115.114 103 114.72L102.56 114.6L102.17 114.46C101.935 114.36 101.708 114.243 101.49 114.11C100.94 113.77 101.01 113.46 101.49 112.54C101.8 111.94 102.16 111.36 102.59 110.6C102.59 110.6 102.59 110.65 102.59 110.67C102.655 111.318 102.848 111.946 103.159 112.518C103.47 113.089 103.892 113.593 104.4 114C104.683 114.188 104.989 114.339 105.31 114.45C105.561 114.533 105.818 114.594 106.08 114.63L107.3 114.9L107.75 115L107.67 115.02ZM109.67 114.3L111.16 113.21C112.136 112.209 112.715 110.887 112.79 109.49C112.867 108.936 112.817 108.372 112.644 107.84C112.47 107.308 112.178 106.823 111.79 106.42C111.655 106.273 111.531 106.116 111.42 105.95C111.879 105.95 112.335 106.024 112.77 106.17C113.022 106.249 113.259 106.371 113.47 106.53C113.84 106.83 114.127 107.221 114.302 107.664C114.477 108.107 114.535 108.588 114.47 109.06C114.454 109.973 114.185 110.863 113.692 111.631C113.199 112.399 112.503 113.015 111.68 113.41C111.13 113.915 110.439 114.239 109.7 114.34L109.67 114.3ZM193.14 183.15C193.044 182.767 192.927 182.39 192.79 182.02C192.737 181.89 192.647 181.778 192.53 181.7C192.492 181.67 192.447 181.65 192.4 181.64C192.248 181.584 192.082 181.584 191.93 181.64C191.843 181.658 191.762 181.695 191.69 181.746C191.618 181.798 191.558 181.864 191.512 181.94C191.467 182.016 191.438 182.101 191.428 182.188C191.417 182.276 191.425 182.365 191.45 182.45C191.6 183.21 191.8 183.96 191.97 184.71C192.198 185.833 192.033 187 191.503 188.015C190.973 189.031 190.111 189.834 189.06 190.29C188.612 190.502 188.099 190.531 187.63 190.37C187.557 190.348 187.488 190.31 187.43 190.26C187.193 190.076 187.013 189.83 186.909 189.549C186.804 189.268 186.781 188.964 186.84 188.67C186.884 188.17 187.009 187.68 187.21 187.22C187.311 187.008 187.391 186.787 187.45 186.56C187.488 186.428 187.483 186.288 187.434 186.16C187.385 186.032 187.296 185.923 187.18 185.85L187.03 185.78C186.909 185.732 186.776 185.723 186.65 185.755C186.525 185.788 186.412 185.859 186.33 185.96C186.126 186.192 185.96 186.455 185.84 186.74C185.477 187.398 185.3 188.142 185.328 188.892C185.356 189.643 185.588 190.372 186 191C186.097 191.121 186.149 191.271 186.149 191.425C186.149 191.58 186.097 191.729 186 191.85C185.628 192.372 185.108 192.77 184.507 192.993C183.906 193.216 183.252 193.253 182.63 193.1L182.44 193.04C182.32 192.991 182.203 192.935 182.09 192.87C181.621 192.586 181.27 192.143 181.101 191.622C180.932 191.1 180.956 190.535 181.17 190.03C181.279 189.783 181.403 189.543 181.54 189.31C181.598 189.233 181.639 189.144 181.66 189.049C181.681 188.955 181.681 188.857 181.661 188.763C181.641 188.668 181.602 188.579 181.544 188.501C181.487 188.423 181.414 188.358 181.33 188.31C181.284 188.279 181.233 188.255 181.18 188.24C181.016 188.191 180.84 188.201 180.683 188.269C180.526 188.337 180.397 188.457 180.32 188.61C179.991 189.043 179.754 189.539 179.624 190.067C179.493 190.595 179.471 191.144 179.56 191.68C179.698 192.312 179.959 192.91 180.33 193.44C180.146 193.658 179.897 193.812 179.62 193.88C179.392 193.998 179.137 194.053 178.88 194.04H178.82C178.64 193.95 178.56 193.71 178.49 193.24C178.292 191.811 177.696 190.466 176.77 189.36C176.521 189.097 176.36 188.763 176.31 188.405C176.26 188.046 176.323 187.681 176.49 187.36C177.755 184.416 179.969 181.98 182.78 180.44C183.298 180.176 183.85 179.985 184.42 179.87C184.87 179.77 185.24 179.56 185.19 179.03C185.187 178.947 185.164 178.866 185.124 178.793C185.084 178.72 185.028 178.658 184.96 178.61C184.93 178.603 184.9 178.603 184.87 178.61C184.62 178.507 184.346 178.479 184.08 178.53C183.467 178.619 182.872 178.808 182.32 179.09C179.313 180.589 176.874 183.025 175.37 186.03C175.18 186.37 175.29 186.73 175.19 187.23C173.897 185.781 173.032 184.002 172.69 182.09C172.53 180.81 172.46 179.54 172.4 178.26C172.26 174.82 172.32 171.37 171.98 167.93C171.66 164.7 171.62 161.43 171.06 158.22C170.789 156.735 170.36 155.283 169.78 153.89C169.73 153.76 169.7 153.57 169.58 153.49C169.515 153.469 169.445 153.469 169.38 153.49C169.246 153.517 169.126 153.594 169.046 153.705C168.967 153.817 168.932 153.954 168.95 154.09C168.95 154.79 169.03 155.49 169.07 156.18C169.098 156.167 169.129 156.161 169.16 156.161C169.191 156.161 169.222 156.167 169.25 156.18C169.296 156.219 169.327 156.271 169.34 156.33C170.012 158.716 170.395 161.173 170.48 163.65C170.54 166.22 171.07 168.73 171.05 171.29C171.05 174.16 171.05 177.03 171.05 179.9C171.065 180.084 171.015 180.268 170.91 180.42C171.118 180.925 171.253 181.457 171.31 182C171.475 183.973 172.12 185.875 173.19 187.54C173.89 188.61 174.76 189.54 175.53 190.54C176.46 191.788 177.012 193.277 177.12 194.83C177.175 195.543 176.972 196.253 176.55 196.83C175.88 197.645 174.998 198.258 174 198.6C173.627 198.745 173.213 198.745 172.84 198.6H172.68L172.42 198.47C172.274 198.389 172.161 198.26 172.097 198.106C172.033 197.952 172.024 197.78 172.07 197.62C172.267 196.71 172.304 195.773 172.18 194.85C172.151 194.622 172.101 194.398 172.03 194.18C171.95 193.997 171.822 193.838 171.66 193.72H171.58C171.425 193.664 171.255 193.664 171.1 193.72C170.909 193.768 170.743 193.886 170.635 194.051C170.527 194.216 170.486 194.416 170.52 194.61C170.622 195.064 170.689 195.526 170.72 195.99C170.624 197.074 170.184 198.099 169.464 198.916C168.745 199.732 167.783 200.298 166.72 200.53C166.185 200.63 165.632 200.585 165.12 200.4C164.894 200.315 164.681 200.198 164.49 200.05C164.163 199.817 163.888 199.519 163.682 199.175C163.475 198.831 163.342 198.448 163.29 198.05C163.155 197.16 163.305 196.249 163.72 195.45L164.1 194.73C164.149 194.657 164.183 194.575 164.198 194.489C164.213 194.402 164.21 194.313 164.188 194.228C164.166 194.143 164.126 194.064 164.072 193.995C164.017 193.926 163.948 193.87 163.87 193.83L163.73 193.76C163.589 193.712 163.435 193.712 163.293 193.761C163.152 193.81 163.031 193.904 162.95 194.03C162.473 194.648 162.132 195.36 161.95 196.12C161.866 196.449 161.805 196.783 161.77 197.12C161.64 198.12 161.57 198.23 160.51 198.04C160.31 198.003 160.113 197.953 159.92 197.89C159.24 197.662 158.654 197.218 158.249 196.626C157.845 196.034 157.645 195.326 157.68 194.61C157.744 192.886 158.459 191.249 159.68 190.03C159.968 189.745 160.18 189.393 160.297 189.005C160.414 188.617 160.432 188.207 160.35 187.81C159.757 183.276 158.794 178.797 157.47 174.42C155.78 168.376 153.488 162.517 150.63 156.93C149.83 155.39 148.9 153.93 148.16 152.34C148.099 152.165 147.988 152.012 147.84 151.9C147.821 151.893 147.799 151.893 147.78 151.9C147.716 151.87 147.646 151.854 147.575 151.854C147.504 151.854 147.434 151.87 147.37 151.9C146.97 152.03 146.92 152.4 146.94 152.77C146.975 153.04 147.067 153.299 147.21 153.53C147.61 154.32 147.98 155.13 148.39 155.92C151.447 161.966 153.944 168.279 155.85 174.78C157.04 178.628 157.942 182.559 158.55 186.54C158.72 187.67 158.55 187.54 157.81 187.95C156.366 188.632 154.786 188.974 153.19 188.95C149.778 189.091 146.368 188.606 143.13 187.52C141.871 187.097 140.682 186.49 139.6 185.72C138.499 184.893 137.463 183.984 136.5 183C135.724 182.179 135.17 181.174 134.89 180.08C134.444 178.716 134.195 177.295 134.15 175.86C134.06 172.86 134.33 169.86 134.52 166.81C134.73 163.44 134.7 160.06 134.62 156.7C134.628 155.153 134.481 153.608 134.18 152.09C134.13 151.9 134.09 151.71 134.05 151.52C134.016 151.394 133.942 151.282 133.84 151.2C133.798 151.17 133.751 151.15 133.7 151.14C133.615 151.102 133.523 151.085 133.43 151.09C133.272 151.09 133.12 151.15 133.005 151.257C132.89 151.365 132.82 151.513 132.81 151.67C132.79 151.823 132.79 151.977 132.81 152.13C133.48 155.91 133.03 159.71 133.09 163.5C133.09 165.99 132.82 168.5 132.68 170.92C132.53 173.74 132.31 176.58 133.06 179.36C133.479 181.412 134.528 183.282 136.06 184.71C137.642 185.988 138.808 187.708 139.41 189.65C139.668 190.383 139.751 191.167 139.652 191.938C139.554 192.709 139.278 193.446 138.845 194.092C138.412 194.737 137.835 195.273 137.159 195.656C136.482 196.04 135.726 196.26 134.95 196.3H135C135.315 195.35 135.394 194.337 135.23 193.35C135.112 192.819 134.899 192.314 134.6 191.86C134.515 191.74 134.41 191.635 134.29 191.55L134.15 191.48C134.064 191.438 133.97 191.417 133.875 191.417C133.78 191.417 133.686 191.438 133.6 191.48C133.501 191.524 133.413 191.59 133.343 191.673C133.274 191.756 133.224 191.854 133.198 191.959C133.172 192.064 133.17 192.174 133.193 192.28C133.216 192.386 133.263 192.485 133.33 192.57C133.638 193.067 133.809 193.637 133.826 194.222C133.844 194.806 133.707 195.385 133.43 195.9C133.155 196.501 132.76 197.04 132.27 197.483C131.78 197.927 131.205 198.266 130.58 198.48C129.37 198.93 128.22 198.48 127.05 198.34H127C126.87 198.27 126.87 198.06 126.83 197.91C126.497 196.841 126.442 195.706 126.67 194.61C126.8 194.16 126.88 193.7 127 193.25C127.06 193.01 127.1 192.8 126.92 192.64L126.83 192.58L126.64 192.5C126.537 192.466 126.428 192.455 126.321 192.469C126.214 192.483 126.111 192.521 126.02 192.58C125.726 192.776 125.519 193.076 125.44 193.42C125.26 193.97 125.1 194.53 124.92 195.13C124.04 194.66 123.23 194.13 122.32 193.71C121.993 193.564 121.66 193.433 121.32 193.32C119.719 192.739 117.99 192.608 116.32 192.94C116.133 192.985 115.942 193.015 115.75 193.03C115.641 193.046 115.529 193.046 115.42 193.03C115.305 193.002 115.201 192.94 115.121 192.853C115.041 192.766 114.988 192.657 114.97 192.54C114.949 192.453 114.948 192.363 114.966 192.276C114.985 192.189 115.023 192.107 115.078 192.037C115.133 191.967 115.203 191.91 115.283 191.87C115.363 191.831 115.451 191.811 115.54 191.81C116.673 191.544 117.839 191.446 119 191.52L121.25 191.87C120.75 189.3 121.37 186.87 121.77 184.38C122.706 178.603 123.344 172.782 123.68 166.94C123.96 162.02 124.21 157.11 124.01 152.18C123.914 147.216 123.406 142.269 122.49 137.39C122.169 135.757 121.69 134.16 121.06 132.62C120.771 131.829 120.265 131.136 119.6 130.62C118.74 130.01 118.9 129.44 119.85 128.91C121.076 128.158 122.059 127.067 122.68 125.77C122.878 125.229 123.28 124.788 123.8 124.54C124.815 125.502 125.895 126.394 127.03 127.21C129.95 129.336 133.191 130.984 136.63 132.09C138.821 132.797 141.065 133.329 143.34 133.68C148.165 134.554 153.128 134.266 157.82 132.84C159.978 132.186 161.979 131.097 163.7 129.64C164.711 128.754 165.572 127.711 166.25 126.55C167.64 128.68 169.06 130.66 170.25 132.79C171.184 133.895 172.185 134.941 173.25 135.92C174.39 137.027 175.418 138.243 176.32 139.55C177.002 140.443 177.74 141.291 178.53 142.09C178.76 142.297 178.971 142.525 179.16 142.77C181.34 145.77 183.53 148.86 186.01 151.69C188.052 154.117 189.757 156.808 191.08 159.69C191.13 159.77 191.163 159.859 191.177 159.952C191.19 160.045 191.185 160.139 191.16 160.23H191.28C191.34 160.23 191.36 160.33 191.35 160.42C192.35 162.61 193.44 164.79 194.35 167.05C195.86 170.552 196.272 174.429 195.53 178.17C195.207 179.992 194.391 181.69 193.17 183.08L193.14 183.15Z" fill="#020202"/>
<path d="M140.68 87.93C140.596 87.9782 140.502 88.0036 140.405 88.0036C140.308 88.0036 140.214 87.9782 140.13 87.93C140.213 87.9636 140.302 87.9767 140.391 87.968C140.48 87.9593 140.565 87.9291 140.64 87.88C141.14 87.62 141.06 87.1799 140.89 86.7799C140.57 85.9899 140.2 85.22 139.89 84.45C138.716 81.8806 137.31 79.4237 135.69 77.11C135.248 76.6914 134.861 76.2175 134.54 75.7C135.118 75.8858 135.643 76.2083 136.07 76.6399C136.014 76.6433 135.959 76.6586 135.908 76.6847C135.858 76.7109 135.814 76.7474 135.779 76.7918C135.744 76.8362 135.719 76.8875 135.706 76.9424C135.692 76.9972 135.69 77.0543 135.7 77.11C137.32 79.4237 138.726 81.8806 139.9 84.45C140.26 85.22 140.63 85.9899 140.95 86.7799C141.1 87.2299 141.18 87.67 140.68 87.93Z" fill="white"/>
<path d="M90.72 114.11C90.72 114.47 90.53 114.66 90.27 114.85C89.4181 115.375 88.4565 115.697 87.46 115.79C86.5912 116.075 85.6608 116.117 84.77 115.91L86.28 115.63C88.37 114.75 89.22 113.08 89.21 110.68C90.0842 111.621 90.6161 112.83 90.72 114.11Z" fill="white"/>
<path d="M83.19 115.9C82.52 115.71 81.76 115.84 81.19 115.34C80.3003 115.096 79.4736 114.664 78.7661 114.072C78.0585 113.48 77.4869 112.743 77.09 111.91C76.7476 111.303 76.6271 110.596 76.7494 109.91C76.8717 109.223 77.229 108.601 77.76 108.15C78.99 106.86 79.41 106.81 81.44 106.48C80.5957 107.078 79.9481 107.913 79.5796 108.88C79.211 109.847 79.1381 110.902 79.37 111.91C79.4553 112.6 79.7137 113.257 80.1211 113.82C80.5284 114.383 81.0716 114.833 81.7 115.13C82.27 115.22 82.67 115.69 83.19 115.9Z" fill="white"/>
<path d="M170.89 180.38C171.1 180.88 171.232 181.41 171.28 181.95C171.453 183.925 172.101 185.83 173.17 187.5C173.87 188.56 174.74 189.5 175.51 190.5C176.44 191.748 176.992 193.237 177.1 194.79C177.145 195.504 176.94 196.211 176.52 196.79C175.888 197.629 175.026 198.268 174.04 198.63C173.82 198.71 173.586 198.745 173.353 198.733C173.119 198.721 172.89 198.662 172.68 198.56C172.573 198.537 172.473 198.492 172.385 198.428C172.297 198.365 172.223 198.283 172.168 198.189C172.114 198.094 172.079 197.99 172.068 197.882C172.056 197.773 172.067 197.664 172.1 197.56C172.307 196.651 172.344 195.712 172.21 194.79C172.185 194.563 172.138 194.338 172.07 194.12C172.01 193.931 171.88 193.772 171.706 193.675C171.533 193.578 171.329 193.551 171.136 193.6C170.944 193.648 170.777 193.768 170.67 193.936C170.563 194.103 170.523 194.305 170.56 194.5C170.657 194.952 170.724 195.409 170.76 195.87C170.664 196.954 170.224 197.979 169.504 198.796C168.785 199.612 167.823 200.178 166.76 200.41C166.369 200.49 165.966 200.488 165.576 200.403C165.186 200.318 164.818 200.153 164.496 199.918C164.174 199.682 163.905 199.382 163.706 199.036C163.507 198.69 163.382 198.307 163.34 197.91C163.206 197.023 163.356 196.116 163.77 195.32L164.14 194.6C164.19 194.527 164.224 194.445 164.24 194.358C164.256 194.271 164.253 194.182 164.232 194.096C164.212 194.01 164.173 193.93 164.119 193.86C164.066 193.79 163.998 193.732 163.92 193.69C163.847 193.64 163.764 193.605 163.677 193.588C163.59 193.571 163.5 193.573 163.414 193.593C163.327 193.612 163.246 193.65 163.175 193.703C163.103 193.756 163.044 193.823 163 193.9C162.525 194.516 162.184 195.224 162 195.98C161.916 196.308 161.855 196.643 161.82 196.98C161.69 198.03 161.61 198.09 160.56 197.9C159.743 197.79 158.997 197.376 158.472 196.74C157.947 196.104 157.682 195.293 157.73 194.47C157.798 192.746 158.512 191.111 159.73 189.89C160.019 189.608 160.232 189.258 160.351 188.871C160.47 188.485 160.49 188.076 160.41 187.68C159.819 183.145 158.856 178.667 157.53 174.29C155.841 168.246 153.55 162.386 150.69 156.8C149.89 155.25 148.96 153.8 148.22 152.2C148.05 151.84 147.83 151.58 147.42 151.71C147.01 151.84 146.98 152.2 147 152.57C147.032 152.839 147.12 153.098 147.26 153.33C147.67 154.12 148.04 154.93 148.45 155.72C151.506 161.766 154.003 168.079 155.91 174.58C157.101 178.427 158 182.358 158.6 186.34C158.77 187.47 158.6 187.34 157.87 187.75C156.426 188.431 154.846 188.773 153.25 188.75C149.837 188.891 146.428 188.406 143.19 187.32C140.679 186.376 138.41 184.883 136.55 182.95C135.776 182.124 135.222 181.116 134.94 180.02C134.49 178.66 134.238 177.242 134.19 175.81C134.11 172.81 134.38 169.81 134.56 166.75C134.77 163.38 134.74 160.01 134.67 156.64C134.674 155.092 134.524 153.548 134.22 152.03C134.22 151.84 134.14 151.65 134.09 151.46C134.057 151.328 133.977 151.212 133.864 151.135C133.752 151.057 133.615 151.024 133.48 151.04C133.402 151.036 133.323 151.048 133.25 151.074C133.176 151.101 133.108 151.142 133.05 151.195C132.993 151.248 132.946 151.312 132.913 151.383C132.881 151.455 132.862 151.532 132.86 151.61C132.84 151.766 132.84 151.924 132.86 152.08C133.54 155.85 133.09 159.65 133.15 163.44C133.15 165.93 132.87 168.39 132.74 170.86C132.59 173.68 132.36 176.52 133.12 179.3C133.539 181.352 134.588 183.222 136.12 184.65C137.7 185.93 138.866 187.649 139.47 189.59C139.73 190.328 139.814 191.116 139.714 191.892C139.614 192.668 139.334 193.41 138.895 194.058C138.456 194.706 137.872 195.241 137.188 195.622C136.505 196.003 135.742 196.218 134.96 196.25C135.278 195.3 135.354 194.286 135.18 193.3C135.071 192.766 134.857 192.26 134.55 191.81C134.462 191.633 134.308 191.497 134.121 191.432C133.934 191.367 133.729 191.377 133.55 191.46C133.451 191.506 133.364 191.574 133.296 191.658C133.227 191.742 133.178 191.841 133.153 191.947C133.128 192.053 133.128 192.163 133.151 192.269C133.175 192.375 133.222 192.475 133.29 192.56C133.598 193.056 133.769 193.624 133.787 194.207C133.804 194.79 133.667 195.367 133.39 195.88C133.11 196.479 132.713 197.016 132.224 197.46C131.735 197.905 131.163 198.248 130.54 198.47C129.33 198.92 128.18 198.47 127.01 198.33C126.79 198.33 126.8 198.03 126.75 197.85C126.417 196.781 126.362 195.646 126.59 194.55C126.72 194.1 126.8 193.64 126.91 193.19C126.98 192.92 127.03 192.67 126.7 192.5C126.583 192.431 126.45 192.395 126.315 192.395C126.18 192.395 126.047 192.431 125.93 192.5C125.642 192.7 125.439 192.999 125.36 193.34C125.18 193.89 125.02 194.45 124.84 195.06C123.94 194.58 123.12 194.06 122.2 193.61C120.327 192.74 118.229 192.478 116.2 192.86C116.012 192.903 115.822 192.936 115.63 192.96C115.24 192.96 114.92 192.87 114.84 192.44C114.821 192.353 114.821 192.262 114.841 192.175C114.861 192.088 114.9 192.007 114.956 191.937C115.011 191.867 115.082 191.81 115.162 191.771C115.243 191.732 115.331 191.711 115.42 191.71C116.553 191.447 117.719 191.352 118.88 191.43L121.12 191.78C120.63 189.2 121.25 186.78 121.65 184.29C122.586 178.51 123.224 172.686 123.56 166.84C123.84 161.93 124.09 157.01 123.89 152.08C123.794 147.12 123.286 142.176 122.37 137.3C122.069 135.692 121.61 134.118 121 132.6C120.716 131.809 120.213 131.116 119.55 130.6C118.69 129.99 118.84 129.42 119.79 128.89C121.019 128.138 122.005 127.048 122.63 125.75C122.726 125.481 122.875 125.234 123.067 125.023C123.259 124.812 123.491 124.641 123.75 124.52C129.167 129.524 135.999 132.73 143.31 133.7C148.139 134.57 153.106 134.279 157.8 132.85C159.955 132.193 161.954 131.108 163.68 129.66C164.686 128.77 165.547 127.727 166.23 126.57C167.63 128.7 169.06 130.7 170.23 132.85C169.898 133.277 169.674 133.778 169.58 134.31C168.977 136.681 168.845 139.148 169.19 141.57C169.718 145.156 171.199 148.533 173.48 151.35C174.291 152.331 175.27 153.16 176.37 153.8C178.68 155.25 181.37 155.69 183.86 156.55C185.841 157.207 187.727 158.122 189.47 159.27C189.981 159.726 190.566 160.091 191.2 160.35C191.2 160.53 191.28 160.56 191.41 160.56C192.41 162.77 193.51 164.95 194.41 167.21C195.916 170.716 196.327 174.596 195.59 178.34C195.261 180.175 194.435 181.884 193.2 183.28C193.104 182.896 192.984 182.519 192.84 182.15C192.812 182.067 192.767 181.99 192.709 181.924C192.651 181.858 192.58 181.804 192.501 181.766C192.422 181.728 192.336 181.706 192.248 181.702C192.16 181.697 192.073 181.71 191.99 181.74C191.903 181.758 191.822 181.795 191.75 181.846C191.678 181.898 191.617 181.964 191.572 182.04C191.527 182.116 191.498 182.201 191.488 182.288C191.477 182.376 191.485 182.465 191.51 182.55C191.66 183.31 191.86 184.06 192.03 184.81C192.258 185.933 192.093 187.1 191.563 188.115C191.033 189.131 190.171 189.934 189.12 190.39C187.74 190.94 186.77 190.25 186.89 188.78C186.937 188.276 187.065 187.783 187.27 187.32C187.366 187.111 187.443 186.893 187.5 186.67C187.545 186.54 187.543 186.398 187.496 186.269C187.449 186.14 187.358 186.031 187.24 185.96C187.112 185.867 186.953 185.825 186.795 185.844C186.638 185.862 186.493 185.939 186.39 186.06C186.187 186.293 186.022 186.556 185.9 186.84C185.547 187.48 185.37 188.203 185.388 188.934C185.405 189.664 185.617 190.378 186 191C186.091 191.124 186.135 191.276 186.126 191.429C186.117 191.582 186.055 191.728 185.95 191.84C185.557 192.398 184.993 192.813 184.345 193.024C183.696 193.235 182.996 193.23 182.35 193.01C182.069 192.897 181.814 192.73 181.6 192.517C181.385 192.304 181.215 192.05 181.101 191.77C180.986 191.49 180.929 191.19 180.932 190.888C180.935 190.586 180.999 190.287 181.12 190.01C181.229 189.763 181.353 189.523 181.49 189.29C181.548 189.212 181.588 189.123 181.608 189.028C181.628 188.933 181.628 188.835 181.607 188.74C181.586 188.645 181.545 188.556 181.487 188.479C181.429 188.401 181.355 188.337 181.27 188.29C180.87 188.04 180.52 188.29 180.27 188.59C179.94 189.022 179.701 189.518 179.568 190.046C179.436 190.573 179.413 191.123 179.5 191.66C179.643 192.292 179.908 192.889 180.28 193.42C180.092 193.635 179.845 193.792 179.57 193.87C178.75 194.18 178.57 194.09 178.44 193.2C178.24 191.775 177.644 190.434 176.72 189.33C176.471 189.067 176.31 188.733 176.26 188.375C176.21 188.016 176.273 187.651 176.44 187.33C177.699 184.379 179.914 181.938 182.73 180.4C183.249 180.139 183.801 179.947 184.37 179.83C184.82 179.73 185.19 179.53 185.14 178.99C185.09 178.45 184.71 178.36 184.03 178.45C183.414 178.537 182.817 178.723 182.26 179C179.257 180.502 176.822 182.937 175.32 185.94C175.13 186.3 175.24 186.66 175.14 187.17C173.847 185.721 172.981 183.942 172.64 182.03C172.47 180.76 172.4 179.48 172.35 178.21C172.21 174.76 172.26 171.31 171.93 167.87C171.61 164.64 171.57 161.38 171.01 158.17C170.743 156.683 170.311 155.231 169.72 153.84C169.64 153.64 169.61 153.33 169.29 153.4C169.154 153.425 169.034 153.501 168.953 153.613C168.873 153.725 168.84 153.864 168.86 154C168.86 154.69 168.94 155.39 168.97 156.08C168.91 156.08 168.8 156.14 168.79 156.19C168.328 157.472 167.652 158.665 166.79 159.72C165.437 161.513 164.346 163.49 163.55 165.59C163.014 166.96 162.812 168.437 162.96 169.9C163.297 172.26 164.485 174.415 166.3 175.96C167.944 177.31 169.479 178.788 170.89 180.38Z" fill="#FDFDFD"/>
<path d="M172 112.54C171.91 112.4 171.79 112.44 171.66 112.54C170.21 113.62 168.66 113.31 167.12 112.83C164.05 111.89 162.34 109.54 160.92 106.9C160.34 105.81 159.92 104.64 159.42 103.51C158.12 100.51 154.21 98.45 150.9 99.61C150.392 99.7981 149.866 99.9322 149.33 100.01C147.56 100.24 146.33 99.25 145.33 98.01C144.306 96.7699 143.772 95.1972 143.83 93.59C143.864 92.0428 144.065 90.5039 144.43 89C144.695 88.0229 144.809 87.0114 144.77 86L143.63 84.29C141.65 81.2756 139.091 78.6853 136.1 76.67C136.044 76.6733 135.989 76.6886 135.938 76.7148C135.888 76.7409 135.844 76.7774 135.809 76.8218C135.774 76.8662 135.749 76.9176 135.736 76.9724C135.722 77.0272 135.72 77.0843 135.73 77.14C137.35 79.4537 138.756 81.9106 139.93 84.48C140.29 85.25 140.66 86.02 140.98 86.81C141.15 87.21 141.23 87.65 140.73 87.91C140.646 87.9582 140.552 87.9837 140.455 87.9837C140.358 87.9837 140.264 87.9582 140.18 87.91H140.12C139.922 87.755 139.767 87.5519 139.67 87.32C139.43 86.88 139.23 86.42 139.02 85.96C137.986 83.704 136.769 81.5367 135.38 79.48C134.366 77.94 133.094 76.5867 131.62 75.48C131.426 75.3244 131.222 75.1808 131.01 75.05C130.697 74.8458 130.361 74.678 130.01 74.55L129.77 74.47C128.56 74.15 127.56 74.67 126.68 76.03C126.011 77.0787 125.531 78.236 125.26 79.45C124.443 83.5548 124.068 87.7353 124.14 91.92C124.182 92.9578 123.962 93.9895 123.5 94.92C122.766 96.1824 122.419 97.6321 122.5 99.09C122.518 101.879 122.31 104.665 121.88 107.42C121.724 108.651 121.904 109.902 122.4 111.04C122.65 111.564 122.86 112.105 123.03 112.66C123.933 115.589 124.236 118.671 123.92 121.72C123.883 121.948 123.904 122.182 123.983 122.399C124.062 122.616 124.195 122.809 124.37 122.96C125.378 123.965 126.465 124.888 127.62 125.72C128 126 128.39 126.26 128.79 126.52C131.09 128.019 133.561 129.237 136.15 130.15C137.724 130.717 139.334 131.178 140.97 131.53C145.896 132.723 151.033 132.747 155.97 131.6C158.754 131.02 161.315 129.656 163.35 127.67C164.283 126.791 164.972 125.685 165.35 124.46C165.705 123.239 166.263 122.086 167 121.05C168.083 119.534 169.084 117.962 170 116.34C170.64 115.07 171.36 113.83 172 112.58V112.54ZM147.25 112.86C148.028 111.976 148.994 111.278 150.077 110.818C151.161 110.357 152.334 110.146 153.51 110.2C154.604 110.164 155.692 110.376 156.693 110.819C157.694 111.262 158.581 111.926 159.29 112.76C159.928 113.588 160.363 114.554 160.56 115.58C160.78 116.58 160.15 117.12 159.43 117.58C158.488 118.125 157.442 118.465 156.36 118.58C153.724 118.913 151.056 118.281 148.85 116.8C148.094 116.362 147.459 115.744 147 115C146.866 114.849 146.765 114.673 146.702 114.481C146.639 114.29 146.616 114.087 146.635 113.887C146.654 113.686 146.714 113.491 146.811 113.315C146.908 113.138 147.04 112.983 147.2 112.86H147.25ZM126.6 91.15C126.28 89.7154 126.119 88.2498 126.12 86.78C126.12 86.4 126.12 86.01 126.12 85.45C126.08 83.4916 126.244 81.5343 126.61 79.61C126.786 78.524 127.218 77.4956 127.87 76.61C127.994 76.4009 128.161 76.2203 128.359 76.0796C128.558 75.939 128.783 75.8415 129.022 75.7935C129.26 75.7454 129.506 75.7479 129.743 75.8006C129.981 75.8534 130.204 75.9554 130.4 76.1C131.364 76.7568 132.189 77.5959 132.83 78.57C134.763 80.9455 136.241 83.6577 137.19 86.57C137.31 86.97 137.45 87.38 137.53 87.79C137.6 88.1102 137.581 88.4433 137.475 88.7534C137.369 89.0636 137.181 89.339 136.93 89.55C135.947 90.602 134.695 91.3661 133.31 91.76C131.524 92.2912 129.647 92.4411 127.8 92.2C127.515 92.1735 127.245 92.0578 127.03 91.8693C126.815 91.6807 126.664 91.429 126.6 91.15ZM129 106.61C128.529 105.823 128.294 104.918 128.322 104.002C128.351 103.085 128.641 102.196 129.16 101.44C129.313 101.174 129.528 100.949 129.788 100.785C130.048 100.621 130.344 100.523 130.65 100.5C135.65 99.92 139.38 104.5 139.26 107.72C139.296 108.534 139.195 109.349 138.96 110.13C138.874 110.51 138.658 110.847 138.349 111.085C138.041 111.322 137.659 111.444 137.27 111.43C136.46 111.487 135.646 111.413 134.86 111.21C133.623 110.879 132.466 110.301 131.459 109.51C130.451 108.72 129.615 107.733 129 106.61ZM136.09 122.32C135.704 122.307 135.326 122.211 134.981 122.039C134.636 121.866 134.332 121.621 134.09 121.32C133.966 121.2 133.894 121.036 133.888 120.864C133.881 120.691 133.942 120.523 134.057 120.394C134.171 120.265 134.331 120.186 134.503 120.172C134.675 120.158 134.846 120.211 134.98 120.32C136.57 121.32 137.71 121.04 138.76 119.47C138.874 119.316 139.005 119.175 139.15 119.05C139.15 118.49 138.67 118.19 138.47 117.74C138.319 117.521 138.233 117.263 138.223 116.997C138.213 116.731 138.279 116.468 138.413 116.238C138.547 116.008 138.745 115.821 138.981 115.699C139.218 115.577 139.485 115.526 139.75 115.55C140.452 115.51 141.15 115.684 141.75 116.05C141.974 116.167 142.163 116.341 142.298 116.556C142.432 116.77 142.507 117.017 142.514 117.269C142.521 117.522 142.46 117.772 142.338 117.994C142.216 118.216 142.037 118.401 141.82 118.53C141.254 118.867 140.65 119.136 140.02 119.33C140.11 119.703 140.078 120.096 139.93 120.45C139.792 120.794 139.744 121.167 139.789 121.535C139.835 121.902 139.973 122.253 140.191 122.552C140.409 122.852 140.699 123.092 141.035 123.249C141.37 123.406 141.74 123.475 142.11 123.45C142.57 123.45 143.11 123.26 143.18 123.96C143.25 124.44 142.9 124.67 142.11 124.7C141.415 124.745 140.722 124.578 140.124 124.221C139.526 123.864 139.05 123.333 138.76 122.7C138.63 122.43 138.53 122.14 138.4 121.83C137.683 122.174 136.895 122.342 136.1 122.32H136.09Z" fill="#FDFDFD"/>
<path d="M172 112.58C171.9 112.4 171.77 112.43 171.63 112.58C170.18 113.66 168.63 113.35 167.09 112.87C164.02 111.93 162.3 109.58 160.89 106.94C160.31 105.85 159.89 104.68 159.39 103.55C158.09 100.55 154.17 98.49 150.87 99.65C150.362 99.8382 149.836 99.9723 149.3 100.05C147.53 100.28 146.3 99.29 145.3 98.05C144.277 96.8135 143.743 95.2441 143.8 93.64C143.829 92.0892 144.03 90.5464 144.4 89.04C144.66 88.062 144.774 87.0513 144.74 86.04C145.42 85.97 145.58 85.53 145.38 84.97C145.18 84.41 144.95 84.06 144.75 83.6C144.55 83.14 144.28 82.89 144.29 82.44C146.43 81.68 152.44 82.8 155.22 84.44C155.304 85.8738 155.068 87.3083 154.53 88.64C154.451 88.8565 154.397 89.0813 154.37 89.31C154.208 89.9941 154.292 90.7132 154.606 91.3419C154.921 91.9706 155.446 92.469 156.09 92.75C157.165 93.1928 158.343 93.3278 159.49 93.14C159.783 93.0434 160.092 93.0061 160.4 93.03C160.383 93.0671 160.359 93.1009 160.33 93.13C159.98 93.51 159.56 93.91 160.06 94.41C160.56 94.91 160.92 94.5 161.29 94.22C163.009 92.8817 164.988 91.9146 167.1 91.38C170.212 90.5565 173.437 90.2425 176.65 90.45C177.376 90.5054 178.089 90.6776 178.76 90.96C178 91.16 177.25 91.41 176.48 91.56C175.686 91.7354 174.909 91.9831 174.16 92.3C171 93.4778 168.014 95.0754 165.28 97.05C164.963 97.2667 164.668 97.5146 164.4 97.79C164.295 97.9088 164.238 98.0617 164.238 98.22C164.238 98.3784 164.295 98.5313 164.4 98.65C164.491 98.7815 164.63 98.8719 164.787 98.9018C164.944 98.9318 165.107 98.8988 165.24 98.81C165.814 98.5072 166.372 98.1734 166.91 97.81C169.547 95.9641 172.428 94.4934 175.47 93.44C177.378 92.7857 179.354 92.3496 181.36 92.14C181.605 92.0685 181.862 92.0535 182.113 92.0963C182.365 92.139 182.603 92.2383 182.81 92.3867C183.017 92.5351 183.188 92.7286 183.309 92.9527C183.43 93.1767 183.499 93.4255 183.51 93.68C183.812 95.0885 183.584 96.5588 182.87 97.81C181.224 100.707 179.255 103.408 177 105.86C176.045 106.925 175.241 108.116 174.61 109.4C174.486 109.641 174.328 109.864 174.14 110.06C173.312 110.796 172.592 111.644 172 112.58ZM167.07 101.41C167.141 102.612 167.52 103.776 168.172 104.788C168.823 105.801 169.725 106.628 170.79 107.19C171.158 107.41 171.589 107.5 172.015 107.448C172.44 107.395 172.836 107.203 173.14 106.9C174.55 105.79 175.64 104.36 176.94 103.15C178.764 101.404 180.264 99.3492 181.37 97.08C181.713 96.4731 181.85 95.7713 181.76 95.08C181.754 94.8827 181.685 94.6925 181.562 94.5377C181.44 94.3828 181.271 94.2714 181.08 94.22C180.563 94.0574 180.019 93.9996 179.48 94.05C178.23 94.33 176.99 94.6 175.76 94.95C173.979 95.5848 172.296 96.4667 170.76 97.57C169.716 98.1657 168.737 98.8695 167.84 99.67C167.567 99.8651 167.35 100.129 167.212 100.434C167.073 100.74 167.017 101.076 167.05 101.41H167.07Z" fill="#716967"/>
<path d="M191.23 160.31C190.596 160.051 190.011 159.686 189.5 159.23C187.757 158.082 185.871 157.167 183.89 156.51C181.38 155.65 178.71 155.21 176.4 153.76C175.3 153.12 174.321 152.291 173.51 151.31C171.229 148.493 169.748 145.116 169.22 141.53C168.875 139.108 169.007 136.641 169.61 134.27C169.705 133.738 169.928 133.237 170.26 132.81C171.216 133.923 172.242 134.975 173.33 135.96C174.467 137.069 175.495 138.284 176.4 139.59C177.082 140.483 177.821 141.331 178.61 142.13C178.837 142.337 179.045 142.565 179.23 142.81C181.42 145.81 183.61 148.9 186.09 151.73C188.13 154.158 189.835 156.849 191.16 159.73C191.215 159.815 191.251 159.911 191.263 160.012C191.275 160.112 191.264 160.214 191.23 160.31Z" fill="#A36715"/>
<path d="M170.89 180.38C169.498 178.787 167.984 177.306 166.36 175.95C164.545 174.405 163.357 172.25 163.02 169.89C162.872 168.427 163.074 166.949 163.61 165.58C164.406 163.48 165.497 161.503 166.85 159.71C167.712 158.655 168.388 157.462 168.85 156.18C168.85 156.13 168.97 156.11 169.03 156.07C169.09 156.03 169.34 156.07 169.39 156.26C170.057 158.65 170.44 161.11 170.53 163.59C170.53 166.15 171.11 168.66 171.1 171.23C171.1 174.09 171.1 176.96 171.1 179.83C171.099 180.033 171.024 180.228 170.89 180.38Z" fill="#716967"/>
<path d="M76.38 98.91C75.9276 99.9412 75.2627 100.865 74.4287 101.622C73.5946 102.378 72.6103 102.95 71.54 103.3C71.2321 103.327 70.9222 103.277 70.6391 103.152C70.356 103.028 70.1087 102.835 69.92 102.59C68.7709 101.277 67.8452 99.7834 67.18 98.17C66.1588 95.5541 65.2841 92.8833 64.56 90.17C64.4979 89.9489 64.4709 89.7195 64.48 89.49C64.48 88.49 65.06 87.97 66.05 88.22C66.7145 88.4348 67.3444 88.7446 67.92 89.14C68.9377 89.8458 69.9158 90.6069 70.85 91.42C72.8218 92.862 74.4845 94.6846 75.74 96.78C76.1747 97.4038 76.3989 98.15 76.38 98.91Z" fill="#FDFDFD"/>
<path d="M76.38 98.91C76.4097 98.1331 76.185 97.3676 75.74 96.73C74.4845 94.6346 72.8217 92.812 70.85 91.37C69.9158 90.557 68.9376 89.7958 67.92 89.09C67.3443 88.6947 66.7145 88.3848 66.05 88.17C65.05 87.92 64.47 88.41 64.48 89.44C64.4708 89.6695 64.4978 89.899 64.56 90.12C65.284 92.8333 66.1587 95.5041 67.18 98.12C67.8452 99.7334 68.7708 101.227 69.92 102.54C70.1086 102.785 70.3559 102.978 70.6391 103.102C70.9222 103.227 71.232 103.277 71.54 103.25C70.9825 103.588 70.3698 103.825 69.73 103.95C69.5228 104.009 69.3056 104.025 69.092 103.996C68.8785 103.967 68.6735 103.893 68.49 103.78C67.8327 103.498 67.2385 103.087 66.7422 102.572C66.2459 102.057 65.8576 101.447 65.6 100.78C65.07 99.28 64.73 97.78 64.24 96.22C63.501 93.7332 62.979 91.187 62.68 88.61C62.5666 87.7441 62.4965 86.873 62.47 86C62.47 85.21 62.85 84.91 63.65 85C64.6385 85.1996 65.5944 85.5362 66.49 86C68.0203 86.6588 69.4753 87.4802 70.83 88.45C72.7371 89.8892 74.5415 91.4597 76.23 93.15C76.7464 93.6742 77.2025 94.2545 77.59 94.88C78.42 95.94 77.75 98.25 76.38 98.91Z" fill="#DFA5BD"/>
<path d="M113.3 94.42C111.548 94.5027 109.81 94.0717 108.3 93.18C108.3 92.71 108.05 92.31 108.13 91.82C108.54 88.7441 109.474 85.761 110.89 83C111.494 81.9334 112.2 80.9286 113 80C113.168 79.7574 113.403 79.5699 113.677 79.4613C113.952 79.3527 114.252 79.3279 114.54 79.39C114.826 79.4679 115.082 79.6312 115.273 79.8581C115.464 80.0849 115.582 80.3647 115.61 80.66C115.808 81.9165 115.891 83.1884 115.86 84.46C115.79 85.46 115.72 86.38 115.72 87.35C115.72 88.89 115.58 90.43 115.45 91.97C115.31 93.68 115.08 93.97 113.45 94.37C113.35 94.35 113.33 94.39 113.3 94.42Z" fill="#FDFDFD"/>
<path d="M113.3 94.4199C113.3 94.4199 113.3 94.3499 113.39 94.3399C115.05 93.9099 115.28 93.65 115.39 91.94C115.52 90.4 115.67 88.8599 115.66 87.3199C115.66 86.3199 115.73 85.3899 115.8 84.4299C115.831 83.1583 115.748 81.8865 115.55 80.6299C115.522 80.3346 115.404 80.0549 115.213 79.828C115.022 79.6011 114.766 79.4379 114.48 79.3599C114.198 79.3134 113.908 79.349 113.646 79.4624C113.384 79.5759 113.159 79.7625 113 79.9999C112.2 80.9286 111.494 81.9334 110.89 82.9999C109.466 85.7498 108.523 88.7225 108.1 91.7899C108.02 92.2799 108.3 92.68 108.27 93.15C107.567 92.9781 106.955 92.5462 106.558 91.9412C106.161 91.3363 106.008 90.6033 106.13 89.8899C106.343 87.8902 106.898 85.9419 107.77 84.1299C109.167 81.2362 111.047 78.6017 113.33 76.3399C113.636 76.0289 113.971 75.7476 114.33 75.4999C114.43 75.4055 114.553 75.338 114.686 75.304C114.819 75.27 114.959 75.2706 115.092 75.3056C115.225 75.3406 115.347 75.409 115.447 75.5042C115.546 75.5995 115.619 75.7184 115.66 75.8499C116.068 76.638 116.373 77.4747 116.57 78.3399C117.213 81.291 117.69 84.2757 118 87.2799C118.1 88.3599 118.12 89.4399 118.14 90.5199C118.149 90.9839 118.102 91.4472 118 91.9C117.921 92.3991 117.703 92.8658 117.37 93.2462C117.038 93.6267 116.604 93.9053 116.12 94.05C115.221 94.388 114.256 94.5146 113.3 94.4199Z" fill="#DFA5BD"/>
<path d="M160.41 93.06C160.102 93.036 159.793 93.0734 159.5 93.17C158.352 93.3578 157.175 93.2227 156.1 92.78C155.456 92.4989 154.931 92.0006 154.616 91.3719C154.302 90.7432 154.218 90.024 154.38 89.34C154.407 89.1112 154.461 88.8864 154.54 88.67C155.078 87.3382 155.313 85.9038 155.23 84.47C158.5 86.13 161.66 87.93 164.12 90.98C162.831 91.5753 161.59 92.2708 160.41 93.06Z" fill="#A36715"/>
<path d="M96.67 124.24C96.42 124.5 96.2 124.77 95.94 125C95.5566 125.359 95.095 125.623 94.5916 125.773C94.0882 125.922 93.557 125.952 93.04 125.86C92.6784 125.813 92.3344 125.675 92.04 125.46C91.74 125.24 91.53 124.95 91.76 124.57C91.99 124.19 92.27 124.22 92.66 124.37C94.3 124.98 95.51 124.27 95.83 122.5C95.91 122.09 95.97 121.69 96.45 121.68C96.6474 121.682 96.8386 121.75 96.9928 121.873C97.1469 121.996 97.2552 122.168 97.3 122.36C97.38 122.57 97.39 122.81 97.46 123.03C97.5519 123.326 97.7079 123.598 97.9169 123.827C98.1258 124.056 98.3826 124.236 98.669 124.354C98.9554 124.472 99.2644 124.526 99.5739 124.512C99.8834 124.497 100.186 124.415 100.46 124.27C100.56 124.27 100.65 124.14 100.75 124.08C101.1 123.84 101.48 123.69 101.75 124.08C102.02 124.47 101.67 124.8 101.37 125.08C100.777 125.489 100.068 125.697 99.3486 125.673C98.6288 125.65 97.9353 125.396 97.37 124.95C97.17 124.74 96.93 124.49 96.67 124.24Z" fill="#FDFDFD"/>
<path d="M81.21 110.08C81.1986 109.803 81.245 109.527 81.3461 109.268C81.4472 109.01 81.6009 108.776 81.7975 108.58C81.994 108.385 82.2291 108.232 82.4877 108.132C82.7464 108.032 83.023 107.987 83.3 108C83.784 108.036 84.2385 108.246 84.5788 108.592C84.9192 108.938 85.1222 109.396 85.15 109.88C85.1518 110.437 84.9493 110.976 84.5807 111.395C84.2122 111.813 83.7032 112.082 83.15 112.15C82.8826 112.155 82.6171 112.104 82.3707 112C82.1243 111.896 81.9025 111.742 81.7196 111.546C81.5367 111.351 81.3969 111.12 81.3091 110.867C81.2213 110.615 81.1875 110.347 81.21 110.08Z" fill="#FDFDFD"/>
<path d="M111.22 113.27C112.203 112.276 112.787 110.956 112.86 109.56C112.94 109.006 112.891 108.441 112.718 107.908C112.544 107.376 112.251 106.891 111.86 106.49C111.728 106.339 111.608 106.179 111.5 106.01C113.57 106.01 114.62 107.15 114.5 109.13C114.484 110.04 114.216 110.928 113.725 111.694C113.234 112.46 112.54 113.075 111.72 113.47C111.52 113.43 111.27 113.59 111.22 113.27Z" fill="#FDFDFD"/>
<path d="M96.46 117.94C96.8017 117.924 97.1428 117.982 97.46 118.11C97.6599 118.167 97.8423 118.274 97.9903 118.42C98.1383 118.566 98.2471 118.747 98.3069 118.946C98.3666 119.145 98.3754 119.356 98.3322 119.56C98.2891 119.763 98.1955 119.952 98.06 120.11C97.8319 120.47 97.5365 120.782 97.19 121.03C97.0045 121.204 96.7596 121.302 96.505 121.302C96.2504 121.302 96.0055 121.204 95.82 121.03L95.53 120.83C94.64 120.22 94.38 119.72 94.61 119.05C94.7557 118.689 95.0151 118.385 95.349 118.185C95.6828 117.985 96.0729 117.899 96.46 117.94Z" fill="#DFA5BD"/>
<path d="M107.69 115.08C106.117 115.286 104.519 115.174 102.99 114.75C102.693 114.676 102.402 114.579 102.12 114.46C100.91 113.91 100.86 113.75 101.48 112.56C101.8 111.96 102.15 111.38 102.59 110.62C102.98 112.82 103.91 114.35 106.11 114.7C106.59 115 107.2 114.79 107.69 115.08Z" fill="#FDFDFD"/>
<path d="M85.16 112C85.2946 111.98 85.4316 111.989 85.5629 112.024C85.6942 112.059 85.817 112.121 85.9237 112.205C86.0304 112.289 86.1188 112.394 86.1835 112.514C86.2482 112.633 86.2879 112.765 86.3 112.9C86.2852 113.166 86.1767 113.419 85.9937 113.613C85.8107 113.807 85.565 113.93 85.3 113.96C85.0348 113.96 84.7805 113.855 84.5929 113.667C84.4054 113.48 84.3 113.225 84.3 112.96C84.2905 112.84 84.3055 112.719 84.344 112.605C84.3826 112.491 84.4439 112.386 84.5243 112.296C84.6048 112.206 84.7026 112.134 84.8118 112.083C84.9211 112.032 85.0396 112.004 85.16 112Z" fill="#FDFDFD"/>
<path d="M191.43 160.5C191.3 160.5 191.19 160.5 191.22 160.29C191.39 160.26 191.44 160.35 191.43 160.5Z" fill="#A36715"/>
<path d="M126.11 85.45C126.072 83.4921 126.233 81.5354 126.59 79.61C126.777 78.5272 127.207 77.5013 127.85 76.61C127.976 76.4018 128.144 76.2222 128.344 76.0823C128.543 75.9425 128.769 75.8456 129.008 75.7976C129.247 75.7497 129.493 75.7518 129.731 75.8039C129.969 75.8559 130.193 75.9567 130.39 76.1C131.351 76.757 132.173 77.5962 132.81 78.57C134.748 80.944 136.23 83.6564 137.18 86.57C137.3 86.98 137.43 87.38 137.52 87.8C137.585 88.1202 137.564 88.452 137.459 88.7614C137.353 89.0707 137.167 89.3464 136.92 89.56C135.933 90.6053 134.682 91.3653 133.3 91.76C131.514 92.2912 129.637 92.4411 127.79 92.2C127.5 92.1686 127.228 92.0447 127.013 91.8466C126.799 91.6485 126.654 91.3868 126.6 91.1C126.276 89.6658 126.112 88.2002 126.11 86.73C126.09 86.4 126.11 86 126.11 85.45Z" fill="#020202"/>
<path d="M139.27 107.72C139.308 108.535 139.203 109.351 138.96 110.13C138.878 110.51 138.664 110.848 138.357 111.086C138.05 111.324 137.668 111.446 137.28 111.43C136.47 111.492 135.655 111.418 134.87 111.21C133.632 110.88 132.475 110.303 131.468 109.512C130.46 108.721 129.624 107.734 129.01 106.61C128.539 105.823 128.304 104.918 128.332 104.002C128.36 103.085 128.651 102.196 129.17 101.44C129.323 101.174 129.539 100.95 129.799 100.786C130.058 100.622 130.354 100.524 130.66 100.5C135.69 99.93 139.39 104.5 139.27 107.72ZM134 105.63C134.203 105.646 134.406 105.622 134.6 105.559C134.793 105.495 134.971 105.394 135.125 105.261C135.279 105.128 135.404 104.966 135.494 104.783C135.584 104.601 135.637 104.403 135.65 104.2C135.586 103.755 135.357 103.35 135.009 103.065C134.661 102.78 134.219 102.635 133.77 102.66C133.383 102.706 133.026 102.892 132.766 103.183C132.507 103.474 132.362 103.85 132.36 104.24C132.34 105.08 133 105.63 134 105.63ZM133.09 101.88L133.03 101.64C132.46 101.64 131.89 101.64 131.32 101.64C130.972 101.632 130.628 101.721 130.327 101.898C130.027 102.074 129.782 102.331 129.62 102.64C129.414 103.253 129.376 103.91 129.51 104.543C129.644 105.176 129.944 105.762 130.38 106.24C130.307 105.32 130.529 104.402 131.015 103.617C131.501 102.833 132.224 102.224 133.08 101.88H133.09ZM138.09 107.77C137.615 108.371 137.005 108.852 136.311 109.174C135.616 109.497 134.856 109.653 134.09 109.63C134.649 110.015 135.303 110.239 135.98 110.28C137.87 110.51 138.41 109.99 138.28 108.07C138.227 107.959 138.156 107.858 138.07 107.77H138.09ZM135.15 107.34C135.148 107.109 135.058 106.887 134.898 106.72C134.738 106.553 134.521 106.453 134.29 106.44C134.155 106.422 134.019 106.431 133.888 106.468C133.757 106.504 133.635 106.567 133.529 106.652C133.424 106.737 133.336 106.843 133.273 106.963C133.209 107.083 133.171 107.215 133.16 107.35C133.159 107.599 133.25 107.839 133.417 108.024C133.583 108.209 133.812 108.325 134.06 108.35C134.327 108.33 134.579 108.218 134.774 108.034C134.968 107.85 135.094 107.605 135.13 107.34H135.15Z" fill="#020202"/>
<path d="M153.46 110.21C154.554 110.17 155.642 110.379 156.643 110.82C157.644 111.262 158.532 111.925 159.24 112.76C159.875 113.59 160.309 114.555 160.51 115.58C160.73 116.58 160.1 117.13 159.38 117.58C158.437 118.123 157.392 118.463 156.31 118.58C153.671 118.91 151.001 118.278 148.79 116.8C148.063 116.345 147.451 115.729 147 115C146.874 114.85 146.778 114.677 146.719 114.491C146.66 114.304 146.638 114.108 146.655 113.913C146.672 113.718 146.727 113.528 146.817 113.354C146.907 113.18 147.03 113.026 147.18 112.9C147.957 112.009 148.926 111.304 150.013 110.838C151.1 110.372 152.278 110.158 153.46 110.21ZM154.69 117.38C156.066 117.486 157.441 117.157 158.62 116.44C158.79 116.364 158.943 116.254 159.067 116.115C159.192 115.976 159.285 115.812 159.342 115.635C159.399 115.457 159.417 115.27 159.396 115.084C159.375 114.899 159.315 114.72 159.22 114.56C159.11 114.27 158.97 113.99 158.84 113.72C158.779 113.553 158.658 113.415 158.501 113.332C158.344 113.249 158.162 113.227 157.99 113.27C157.61 113.27 157.51 113.58 157.47 113.92C157.358 114.532 157.11 115.11 156.745 115.614C156.379 116.118 155.906 116.533 155.36 116.83C155.15 117 154.83 117 154.69 117.38ZM154.19 111.63C153.978 111.638 153.769 111.687 153.576 111.776C153.383 111.865 153.209 111.991 153.065 112.147C152.921 112.303 152.809 112.487 152.736 112.686C152.663 112.886 152.631 113.098 152.64 113.31C152.691 113.713 152.877 114.088 153.168 114.372C153.458 114.657 153.836 114.836 154.24 114.88C154.73 114.88 155.202 114.691 155.556 114.352C155.91 114.013 156.119 113.55 156.14 113.06C156.14 112.31 155.2 111.63 154.19 111.63ZM149.69 112.23C149.036 112.546 148.443 112.976 147.94 113.5C147.834 113.586 147.765 113.71 147.746 113.845C147.728 113.981 147.761 114.118 147.84 114.23C148.267 114.959 148.925 115.526 149.71 115.84C149.457 115.272 149.325 114.658 149.321 114.037C149.318 113.416 149.443 112.8 149.69 112.23ZM151.54 115.79C151.753 115.804 151.963 115.735 152.125 115.596C152.287 115.458 152.39 115.262 152.41 115.05C152.41 114.785 152.305 114.53 152.117 114.343C151.93 114.155 151.675 114.05 151.41 114.05C151.196 114.058 150.993 114.147 150.842 114.299C150.692 114.452 150.605 114.656 150.6 114.87C150.619 115.111 150.725 115.337 150.897 115.506C151.07 115.675 151.298 115.776 151.54 115.79Z" fill="#020202"/>
<path d="M140 119.35C140.09 119.723 140.059 120.116 139.91 120.47C139.77 120.813 139.719 121.186 139.763 121.554C139.807 121.922 139.944 122.273 140.161 122.573C140.379 122.873 140.669 123.113 141.004 123.27C141.34 123.427 141.71 123.496 142.08 123.47C142.54 123.47 143.08 123.29 143.16 123.98C143.23 124.46 142.88 124.69 142.09 124.72C141.395 124.765 140.702 124.598 140.104 124.241C139.506 123.884 139.03 123.353 138.74 122.72C138.61 122.44 138.51 122.15 138.38 121.84C137.671 122.19 136.891 122.375 136.1 122.38C135.715 122.365 135.337 122.268 134.992 122.096C134.647 121.924 134.343 121.679 134.1 121.38C133.976 121.26 133.904 121.096 133.898 120.924C133.891 120.751 133.952 120.583 134.067 120.454C134.181 120.325 134.341 120.246 134.513 120.232C134.685 120.218 134.856 120.271 134.99 120.38C136.58 121.38 137.71 121.1 138.76 119.53C138.879 119.381 139.01 119.24 139.15 119.11C139.301 119.092 139.453 119.104 139.599 119.145C139.745 119.186 139.881 119.256 140 119.35Z" fill="#020202"/>
<path d="M140 119.35C139.882 119.246 139.744 119.168 139.594 119.12C139.444 119.072 139.286 119.055 139.13 119.07C139.13 118.51 138.66 118.21 138.46 117.76C138.308 117.543 138.221 117.286 138.211 117.021C138.2 116.756 138.265 116.493 138.398 116.264C138.532 116.035 138.728 115.849 138.964 115.728C139.2 115.606 139.466 115.555 139.73 115.58C140.431 115.533 141.13 115.705 141.73 116.07C141.954 116.188 142.143 116.364 142.277 116.579C142.411 116.794 142.485 117.041 142.492 117.295C142.499 117.548 142.439 117.799 142.317 118.021C142.196 118.243 142.017 118.429 141.8 118.56C141.233 118.892 140.629 119.157 140 119.35Z" fill="#DFA5BD"/>
<path d="M167.05 101.41C167.011 101.078 167.06 100.742 167.191 100.435C167.323 100.128 167.533 99.8606 167.8 99.66C168.697 98.8595 169.676 98.1556 170.72 97.56C172.256 96.4567 173.939 95.5747 175.72 94.94C176.95 94.59 178.19 94.32 179.44 94.04C179.979 93.9896 180.523 94.0474 181.04 94.21C181.231 94.2614 181.4 94.3727 181.522 94.5276C181.645 94.6825 181.714 94.8726 181.72 95.07C181.81 95.7613 181.673 96.4631 181.33 97.07C180.224 99.3392 178.724 101.394 176.9 103.14C175.6 104.35 174.51 105.78 173.1 106.89C172.796 107.192 172.4 107.385 171.975 107.438C171.549 107.49 171.118 107.4 170.75 107.18C169.69 106.616 168.793 105.789 168.145 104.779C167.498 103.768 167.12 102.608 167.05 101.41Z" fill="#020202"/>
<path d="M134 105.63C133 105.63 132.35 105.08 132.36 104.24C132.362 103.85 132.507 103.474 132.766 103.183C133.026 102.892 133.383 102.706 133.77 102.66C134.219 102.635 134.661 102.78 135.009 103.065C135.357 103.35 135.586 103.755 135.65 104.2C135.637 104.403 135.584 104.601 135.494 104.783C135.404 104.966 135.279 105.128 135.125 105.261C134.971 105.394 134.793 105.496 134.6 105.559C134.406 105.622 134.203 105.646 134 105.63Z" fill="#FDFDFD"/>
<path d="M133.08 101.88C132.217 102.224 131.488 102.837 131 103.627C130.512 104.418 130.291 105.344 130.37 106.27C129.934 105.792 129.634 105.206 129.5 104.573C129.366 103.941 129.404 103.283 129.61 102.67C129.772 102.362 130.017 102.104 130.317 101.928C130.618 101.751 130.962 101.662 131.31 101.67C131.88 101.62 132.45 101.67 133.02 101.67L133.08 101.88Z" fill="#FDFDFD"/>
<path d="M138.07 107.77C138.139 107.861 138.193 107.962 138.23 108.07C138.36 109.99 137.82 110.51 135.93 110.28C135.253 110.239 134.599 110.015 134.04 109.63C134.811 109.658 135.577 109.505 136.277 109.181C136.977 108.858 137.592 108.375 138.07 107.77Z" fill="#FDFDFD"/>
<path d="M135.13 107.34C135.091 107.607 134.962 107.852 134.763 108.034C134.565 108.216 134.309 108.324 134.04 108.34C133.793 108.315 133.563 108.199 133.397 108.014C133.23 107.829 133.139 107.589 133.14 107.34C133.151 107.205 133.189 107.073 133.253 106.953C133.317 106.833 133.404 106.727 133.51 106.642C133.615 106.557 133.737 106.494 133.868 106.458C133.999 106.421 134.135 106.412 134.27 106.43C134.503 106.443 134.721 106.544 134.881 106.714C135.041 106.883 135.13 107.107 135.13 107.34Z" fill="#FDFDFD"/>
<path d="M154.69 117.38C154.83 116.96 155.15 116.97 155.36 116.83C155.906 116.533 156.379 116.117 156.745 115.614C157.11 115.11 157.358 114.532 157.47 113.92C157.47 113.58 157.61 113.32 157.99 113.27C158.162 113.227 158.344 113.249 158.501 113.332C158.658 113.415 158.779 113.553 158.84 113.72C158.97 113.99 159.11 114.27 159.22 114.56C159.315 114.72 159.375 114.899 159.396 115.084C159.417 115.269 159.399 115.457 159.342 115.635C159.285 115.812 159.192 115.976 159.067 116.115C158.943 116.253 158.79 116.364 158.62 116.44C157.441 117.157 156.066 117.486 154.69 117.38Z" fill="#FDFDFD"/>
<path d="M154.19 111.63C155.19 111.63 156.14 112.31 156.14 113.06C156.119 113.55 155.91 114.013 155.556 114.352C155.202 114.691 154.73 114.88 154.24 114.88C153.836 114.836 153.458 114.657 153.168 114.373C152.877 114.088 152.692 113.713 152.64 113.31C152.631 113.098 152.663 112.886 152.736 112.686C152.809 112.487 152.921 112.303 153.065 112.147C153.209 111.991 153.383 111.865 153.576 111.776C153.769 111.687 153.978 111.638 154.19 111.63Z" fill="#FDFDFD"/>
<path d="M149.69 112.23C149.44 112.799 149.311 113.414 149.311 114.035C149.311 114.656 149.44 115.271 149.69 115.84C148.905 115.526 148.248 114.959 147.82 114.23C147.741 114.118 147.708 113.981 147.726 113.845C147.745 113.71 147.814 113.586 147.92 113.5C148.429 112.974 149.029 112.543 149.69 112.23Z" fill="#FDFDFD"/>
<path d="M151.54 115.79C151.275 115.79 151.02 115.685 150.833 115.497C150.645 115.31 150.54 115.055 150.54 114.79C150.545 114.576 150.632 114.372 150.782 114.219C150.933 114.067 151.136 113.978 151.35 113.97C151.615 113.97 151.87 114.075 152.057 114.263C152.245 114.45 152.35 114.705 152.35 114.97C152.35 115.186 152.265 115.393 152.113 115.546C151.962 115.7 151.756 115.787 151.54 115.79Z" fill="#FDFDFD"/>
<path d="M22.4489 223.526V221.182H38.8125V223.526H31.9517V243H29.3097V223.526H22.4489ZM60.1912 221.182V243H57.6344L45.7452 225.869H45.5321V243H42.8901V221.182H45.4469L57.3787 238.355H57.5918V221.182H60.1912ZM65.478 243V221.182H72.8501C74.5547 221.182 75.9538 221.473 77.0476 222.055C78.1413 222.631 78.951 223.423 79.4766 224.431C80.0021 225.44 80.2649 226.587 80.2649 227.872C80.2649 229.158 80.0021 230.298 79.4766 231.292C78.951 232.286 78.1449 233.067 77.0582 233.636C75.9716 234.197 74.5831 234.477 72.8928 234.477H66.9268V232.091H72.8075C73.9723 232.091 74.9098 231.92 75.62 231.58C76.3374 231.239 76.8558 230.756 77.1754 230.131C77.5021 229.499 77.6655 228.746 77.6655 227.872C77.6655 226.999 77.5021 226.235 77.1754 225.582C76.8487 224.928 76.3267 224.424 75.6094 224.069C74.892 223.707 73.9439 223.526 72.7649 223.526H68.12V243H65.478ZM75.7479 233.199L81.1172 243H78.049L72.7649 233.199H75.7479ZM98.943 243.298C97.5083 243.298 96.2725 243.036 95.2356 242.51C94.1987 241.984 93.3997 241.263 92.8386 240.347C92.2775 239.431 91.997 238.384 91.997 237.205C91.997 236.295 92.1887 235.489 92.5723 234.786C92.9629 234.076 93.4991 233.419 94.1809 232.815C94.8699 232.205 95.6618 231.594 96.5566 230.983L99.7101 228.639C100.328 228.234 100.822 227.801 101.191 227.339C101.567 226.878 101.756 226.274 101.756 225.528C101.756 224.974 101.51 224.438 101.02 223.92C100.537 223.401 99.9018 223.142 99.1135 223.142C98.5595 223.142 98.0694 223.284 97.6433 223.568C97.2243 223.845 96.894 224.2 96.6525 224.634C96.4181 225.06 96.301 225.5 96.301 225.955C96.301 226.466 96.4395 226.984 96.7164 227.51C97.0005 228.028 97.3592 228.561 97.7924 229.108C98.2328 229.648 98.6873 230.202 99.1561 230.77L109.17 243H106.145L97.8777 233.028C97.1106 232.105 96.4146 231.267 95.7896 230.514C95.1646 229.761 94.6674 229.019 94.2981 228.288C93.9288 227.556 93.7441 226.764 93.7441 225.912C93.7441 224.932 93.9608 224.072 94.394 223.334C94.8343 222.588 95.4487 222.009 96.237 221.597C97.0325 221.178 97.9629 220.969 99.0282 220.969C100.122 220.969 101.063 221.182 101.851 221.608C102.64 222.027 103.247 222.585 103.673 223.281C104.099 223.969 104.312 224.719 104.312 225.528C104.312 226.572 104.053 227.478 103.535 228.245C103.016 229.012 102.309 229.726 101.415 230.386L97.068 233.625C96.0879 234.349 95.4238 235.053 95.0758 235.734C94.7278 236.416 94.5538 236.906 94.5538 237.205C94.5538 237.886 94.7314 238.522 95.0865 239.112C95.4416 239.701 95.9423 240.177 96.5886 240.539C97.2349 240.901 97.9913 241.082 98.8578 241.082C99.6816 241.082 100.484 240.908 101.265 240.56C102.047 240.205 102.753 239.694 103.385 239.026C104.025 238.359 104.529 237.556 104.898 236.619C105.275 235.681 105.463 234.626 105.463 233.455H107.892C107.892 234.903 107.725 236.086 107.391 237.002C107.057 237.918 106.681 238.636 106.262 239.154C105.843 239.673 105.506 240.06 105.25 240.315C105.165 240.422 105.086 240.528 105.015 240.635C104.944 240.741 104.866 240.848 104.781 240.955C104.078 241.743 103.19 242.332 102.118 242.723C101.045 243.107 99.987 243.298 98.943 243.298ZM120.732 243V221.182H128.104C129.809 221.182 131.208 221.473 132.301 222.055C133.395 222.631 134.205 223.423 134.73 224.431C135.256 225.44 135.519 226.587 135.519 227.872C135.519 229.158 135.256 230.298 134.73 231.292C134.205 232.286 133.399 233.067 132.312 233.636C131.225 234.197 129.837 234.477 128.147 234.477H122.181V232.091H128.061C129.226 232.091 130.164 231.92 130.874 231.58C131.591 231.239 132.11 230.756 132.429 230.131C132.756 229.499 132.919 228.746 132.919 227.872C132.919 226.999 132.756 226.235 132.429 225.582C132.103 224.928 131.581 224.424 130.863 224.069C130.146 223.707 129.198 223.526 128.019 223.526H123.374V243H120.732ZM131.002 233.199L136.371 243H133.303L128.019 233.199H131.002ZM146.265 243.341C144.689 243.341 143.329 242.993 142.185 242.297C141.049 241.594 140.172 240.614 139.554 239.357C138.943 238.092 138.638 236.622 138.638 234.946C138.638 233.27 138.943 231.793 139.554 230.514C140.172 229.229 141.031 228.227 142.132 227.51C143.24 226.786 144.532 226.423 146.01 226.423C146.862 226.423 147.704 226.565 148.535 226.849C149.366 227.134 150.122 227.595 150.804 228.234C151.486 228.866 152.029 229.705 152.434 230.749C152.839 231.793 153.041 233.078 153.041 234.605V235.67H140.427V233.497H150.484C150.484 232.574 150.3 231.75 149.93 231.026C149.568 230.301 149.05 229.729 148.375 229.31C147.707 228.891 146.919 228.682 146.01 228.682C145.008 228.682 144.142 228.93 143.41 229.428C142.686 229.918 142.128 230.557 141.738 231.345C141.347 232.134 141.152 232.979 141.152 233.881V235.33C141.152 236.565 141.365 237.613 141.791 238.472C142.224 239.325 142.824 239.974 143.591 240.422C144.358 240.862 145.25 241.082 146.265 241.082C146.926 241.082 147.523 240.99 148.055 240.805C148.595 240.614 149.06 240.33 149.451 239.953C149.841 239.57 150.143 239.094 150.356 238.526L152.785 239.207C152.53 240.031 152.1 240.756 151.496 241.381C150.893 241.999 150.147 242.482 149.259 242.83C148.371 243.17 147.373 243.341 146.265 243.341ZM168.456 230.301L166.198 230.94C166.056 230.564 165.846 230.198 165.569 229.843C165.3 229.481 164.93 229.183 164.461 228.948C163.993 228.714 163.393 228.597 162.661 228.597C161.66 228.597 160.825 228.827 160.157 229.289C159.497 229.744 159.167 230.322 159.167 231.026C159.167 231.651 159.394 232.144 159.849 232.506C160.303 232.869 161.013 233.17 161.979 233.412L164.408 234.009C165.871 234.364 166.961 234.907 167.679 235.638C168.396 236.363 168.755 237.297 168.755 238.44C168.755 239.378 168.485 240.216 167.945 240.955C167.412 241.693 166.667 242.276 165.708 242.702C164.749 243.128 163.634 243.341 162.363 243.341C160.694 243.341 159.312 242.979 158.219 242.254C157.125 241.53 156.432 240.472 156.141 239.08L158.528 238.483C158.755 239.364 159.184 240.024 159.817 240.464C160.456 240.905 161.29 241.125 162.32 241.125C163.492 241.125 164.422 240.876 165.111 240.379C165.807 239.875 166.155 239.271 166.155 238.568C166.155 238 165.956 237.524 165.559 237.141C165.161 236.75 164.55 236.459 163.726 236.267L160.999 235.628C159.501 235.273 158.4 234.722 157.697 233.977C157.001 233.224 156.653 232.283 156.653 231.153C156.653 230.23 156.912 229.413 157.43 228.703C157.956 227.993 158.67 227.435 159.572 227.031C160.481 226.626 161.51 226.423 162.661 226.423C164.28 226.423 165.552 226.778 166.475 227.489C167.405 228.199 168.066 229.136 168.456 230.301ZM179.187 243.341C177.653 243.341 176.332 242.979 175.224 242.254C174.116 241.53 173.264 240.532 172.667 239.261C172.071 237.989 171.772 236.537 171.772 234.903C171.772 233.241 172.078 231.775 172.689 230.504C173.306 229.225 174.166 228.227 175.267 227.51C176.375 226.786 177.667 226.423 179.145 226.423C180.295 226.423 181.332 226.636 182.255 227.062C183.179 227.489 183.935 228.085 184.525 228.852C185.114 229.619 185.48 230.514 185.622 231.537H183.108C182.916 230.791 182.49 230.131 181.829 229.555C181.176 228.973 180.295 228.682 179.187 228.682C178.207 228.682 177.348 228.937 176.609 229.449C175.877 229.953 175.306 230.667 174.894 231.59C174.489 232.506 174.287 233.582 174.287 234.818C174.287 236.082 174.485 237.183 174.883 238.121C175.288 239.058 175.856 239.786 176.588 240.305C177.326 240.823 178.193 241.082 179.187 241.082C179.841 241.082 180.434 240.969 180.966 240.741C181.499 240.514 181.95 240.188 182.319 239.761C182.689 239.335 182.951 238.824 183.108 238.227H185.622C185.48 239.193 185.128 240.063 184.567 240.837C184.013 241.604 183.278 242.215 182.362 242.67C181.453 243.117 180.395 243.341 179.187 243.341ZM199.61 236.31V226.636H202.124V243H199.61V240.23H199.439C199.056 241.061 198.459 241.768 197.65 242.35C196.84 242.925 195.817 243.213 194.581 243.213C193.559 243.213 192.65 242.989 191.854 242.542C191.059 242.087 190.434 241.406 189.979 240.496C189.525 239.58 189.297 238.426 189.297 237.034V226.636H191.811V236.864C191.811 238.057 192.145 239.009 192.813 239.719C193.488 240.429 194.347 240.784 195.391 240.784C196.016 240.784 196.652 240.624 197.298 240.305C197.951 239.985 198.498 239.495 198.939 238.835C199.386 238.174 199.61 237.332 199.61 236.31ZM213.59 243.341C212.013 243.341 210.653 242.993 209.509 242.297C208.373 241.594 207.496 240.614 206.878 239.357C206.267 238.092 205.962 236.622 205.962 234.946C205.962 233.27 206.267 231.793 206.878 230.514C207.496 229.229 208.355 228.227 209.456 227.51C210.564 226.786 211.857 226.423 213.334 226.423C214.186 226.423 215.028 226.565 215.859 226.849C216.69 227.134 217.446 227.595 218.128 228.234C218.81 228.866 219.353 229.705 219.758 230.749C220.163 231.793 220.365 233.078 220.365 234.605V235.67H207.752V233.497H217.808C217.808 232.574 217.624 231.75 217.254 231.026C216.892 230.301 216.374 229.729 215.699 229.31C215.031 228.891 214.243 228.682 213.334 228.682C212.333 228.682 211.466 228.93 210.735 229.428C210.01 229.918 209.453 230.557 209.062 231.345C208.671 232.134 208.476 232.979 208.476 233.881V235.33C208.476 236.565 208.689 237.613 209.115 238.472C209.548 239.325 210.149 239.974 210.916 240.422C211.683 240.862 212.574 241.082 213.59 241.082C214.25 241.082 214.847 240.99 215.379 240.805C215.919 240.614 216.384 240.33 216.775 239.953C217.166 239.57 217.468 239.094 217.681 238.526L220.11 239.207C219.854 240.031 219.424 240.756 218.82 241.381C218.217 241.999 217.471 242.482 216.583 242.83C215.695 243.17 214.698 243.341 213.59 243.341Z" fill="black"/>
</g>
<path d="M32.0688 64.2535L29.5117 66.2732C28.7796 65.6571 28.0046 65.22 27.1867 64.9618C26.3758 64.6982 25.5529 64.5891 24.7181 64.6345C23.8848 64.6676 23.069 64.8431 22.2708 65.161C21.4727 65.4788 20.723 65.9147 20.0219 66.4684C18.7433 67.4783 17.8402 68.7162 17.3126 70.1822C16.7919 71.6427 16.7224 73.2435 17.1041 74.9847C17.4928 76.7204 18.4092 78.5025 19.8534 80.331C21.2976 82.1595 22.8189 83.4638 24.4173 84.2439C26.0227 85.0187 27.5961 85.3219 29.1375 85.1537C30.6858 84.98 32.0993 84.3883 33.3778 83.3784C34.079 82.8246 34.6766 82.1963 35.1708 81.4935C35.6649 80.7907 36.0273 80.0412 36.258 79.2451C36.4901 78.4367 36.5719 77.6075 36.5033 76.7575C36.4362 75.8952 36.1905 75.0401 35.7662 74.192L38.3233 72.1723C38.9833 73.4035 39.3955 74.6462 39.5601 75.9003C39.7246 77.1545 39.665 78.3792 39.3812 79.5744C39.092 80.7628 38.5987 81.8836 37.9012 82.9367C37.2107 83.9844 36.3327 84.929 35.2672 85.7706C33.4662 87.193 31.5171 88.0181 29.4199 88.2458C27.3227 88.4735 25.2313 88.0938 23.1457 87.1068C21.0601 86.1198 19.1378 84.5127 17.3787 82.2855C15.6197 80.0583 14.5016 77.816 14.0246 75.5585C13.5475 73.3011 13.6627 71.1786 14.37 69.1912C15.0773 67.2037 16.3315 65.4988 18.1325 64.0763C19.198 63.2348 20.3203 62.5995 21.4995 62.1704C22.6855 61.7359 23.8928 61.5191 25.1213 61.5199C26.3443 61.5139 27.5468 61.7362 28.7287 62.1868C29.9052 62.6305 31.0185 63.3194 32.0688 64.2535Z" fill="black"/>
<path d="M49.6193 70.8715C48.5113 71.5102 47.3855 71.8811 46.2418 71.9843C45.0938 72.0799 44.0245 71.8824 43.0339 71.3918C42.039 70.8936 41.2134 70.0753 40.5572 68.937C39.9798 67.9353 39.709 67.0095 39.7449 66.1598C39.7764 65.3024 40.0195 64.5051 40.4741 63.7678C40.9288 63.0305 41.5042 62.345 42.2004 61.7111C42.8998 61.0652 43.6249 60.4552 44.3757 59.8808C45.3594 59.1318 46.1617 58.5328 46.7825 58.0839C47.4066 57.6231 47.8201 57.2179 48.023 56.8683C48.2336 56.5144 48.2142 56.1212 47.9648 55.6886L47.9123 55.5976C47.2649 54.4744 46.4544 53.7789 45.481 53.5109C44.5152 53.2386 43.4138 53.459 42.1768 54.1721C40.8943 54.9114 40.0506 55.7718 39.6458 56.7533C39.241 57.7349 39.0743 58.6297 39.1458 59.4378L36.071 59.997C35.9139 58.672 36.0442 57.4949 36.4619 56.4655C36.8827 55.4241 37.4769 54.5255 38.2444 53.7697C39.015 53.0019 39.8405 52.3643 40.7209 51.8568C41.2824 51.5331 41.9669 51.2296 42.7741 50.9462C43.5846 50.6509 44.4495 50.5112 45.3687 50.5273C46.2955 50.539 47.225 50.8272 48.1572 51.392C49.0893 51.9567 49.9557 52.9334 50.7563 54.3222L57.3969 65.8421L54.7105 67.3907L53.3456 65.023L53.209 65.1017C53.2456 65.5861 53.1761 66.1671 53.0005 66.8447C52.8248 67.5222 52.4716 68.2162 51.9409 68.9266C51.4101 69.637 50.6362 70.2853 49.6193 70.8715ZM48.638 68.222C49.7004 67.6095 50.4756 66.8846 50.9635 66.0473C51.4591 65.2056 51.7024 64.3474 51.6937 63.4728C51.6926 62.5938 51.482 61.7901 51.062 61.0616L49.6447 58.6028C49.6096 58.805 49.4313 59.0746 49.1099 59.4115C48.7917 59.7365 48.4062 60.0851 47.9535 60.4573C47.504 60.8175 47.0614 61.1636 46.6259 61.4955C46.1936 61.8155 45.8442 62.0776 45.5777 62.2818C44.932 62.7753 44.3647 63.2995 43.8757 63.8544C43.3899 64.3973 43.077 64.977 42.937 65.5936C42.8003 66.1982 42.9287 66.842 43.3224 67.525C43.8605 68.4584 44.6126 68.9651 45.5788 69.0451C46.5482 69.1132 47.568 68.8388 48.638 68.222Z" fill="black"/>
<path d="M59.497 39.0118L60.5444 41.4219L50.9523 45.5906L49.9049 43.1805L59.497 39.0118ZM50.7733 37.531L53.6172 36.295L61.2843 53.9368C61.6334 54.7401 62.0118 55.292 62.4193 55.5925C62.8314 55.8814 63.2519 56.0138 63.6808 55.9898C64.1142 55.9542 64.5398 55.8457 64.9576 55.6641C65.2709 55.5279 65.521 55.4001 65.7079 55.2807C65.8912 55.1533 66.0379 55.0513 66.148 54.9748L67.8367 57.2781C67.6753 57.4342 67.4376 57.6235 67.1235 57.8459C66.813 58.0764 66.3926 58.3068 65.8624 58.5373C65.0591 58.8864 64.1967 59.0559 63.2754 59.0456C62.362 59.0318 61.4987 58.7814 60.6853 58.2944C59.88 57.804 59.2434 57.0205 58.7756 55.944L50.7733 37.531Z" fill="black"/>
<path d="M99.0026 27.0678C98.5443 26.2578 98.0139 25.5561 97.4116 24.9627C96.8162 24.3591 96.1514 23.8766 95.4173 23.5154C94.6917 23.1525 93.9036 22.9228 93.0531 22.8264C92.2026 22.7299 91.3008 22.7779 90.3477 22.9702C88.785 23.2856 87.4454 23.9759 86.3289 25.0412C85.2124 26.1065 84.4349 27.5011 83.9964 29.2249C83.5579 30.9486 83.5691 32.9525 84.03 35.2365C84.4909 37.5205 85.262 39.371 86.3433 40.7881C87.4246 42.2052 88.6993 43.1856 90.1673 43.7293C91.6353 44.2731 93.185 44.3803 94.8164 44.0511C96.3276 43.7462 97.5935 43.1556 98.6141 42.2794C99.6416 41.3929 100.358 40.2922 100.763 38.9774C101.174 37.6522 101.217 36.1825 100.892 34.5682L101.912 34.5768L93.9782 36.1778L93.4064 33.3443L103.452 31.317L104.024 34.1505C104.463 36.3228 104.38 38.3054 103.777 40.0982C103.182 41.8893 102.163 43.3907 100.718 44.6026C99.2808 45.8042 97.5145 46.6164 95.4194 47.0392C93.0839 47.5105 90.9209 47.3751 88.9303 46.633C86.9483 45.8891 85.2591 44.6037 83.8627 42.7766C82.475 40.9477 81.5004 38.6423 80.9389 35.8603C80.5179 33.7738 80.4183 31.8414 80.6403 30.063C80.8691 28.2743 81.38 26.6878 82.173 25.3035C82.9659 23.9193 84.0033 22.7716 85.2849 21.8607C86.5666 20.9497 88.0532 20.3235 89.7447 19.9822C91.1357 19.7015 92.4747 19.6502 93.7617 19.8283C95.0556 19.9961 96.2518 20.3668 97.3506 20.9404C98.4561 21.5037 99.4332 22.2493 100.282 23.1772C101.128 24.0965 101.801 25.1716 102.3 26.4024L99.0026 27.0678Z" fill="black"/>
<path d="M121.575 34.2989L120.996 22.3826L124.094 22.2322L125.073 42.3902L121.975 42.5406L121.81 39.1285L121.6 39.1387C121.177 40.1853 120.484 41.0915 119.522 41.8574C118.559 42.6145 117.316 43.03 115.794 43.1039C114.534 43.1651 113.401 42.9439 112.394 42.4403C111.387 41.928 110.576 41.1254 109.962 40.0327C109.347 38.9313 108.998 37.5231 108.915 35.8083L108.293 22.9995L111.39 22.8491L112.002 35.4479C112.073 36.9178 112.541 38.0702 113.406 38.9052C114.28 39.7397 115.36 40.1258 116.646 40.0633C117.416 40.0259 118.189 39.791 118.966 39.3586C119.752 38.9258 120.397 38.2894 120.899 37.4494C121.411 36.609 121.636 35.5588 121.575 34.2989Z" fill="black"/>
<path d="M134.447 43.2023C133.173 43.0944 132.037 42.7564 131.039 42.1884C130.042 41.6116 129.276 40.8391 128.743 39.8709C128.21 38.894 128 37.7509 128.111 36.4416C128.208 35.2895 128.514 34.3748 129.029 33.6975C129.544 33.0116 130.199 32.4956 130.993 32.1497C131.787 31.8038 132.651 31.5693 133.584 31.4462C134.527 31.3151 135.471 31.228 136.415 31.1849C137.65 31.1313 138.651 31.0974 139.417 31.0831C140.192 31.0609 140.763 30.9642 141.129 30.793C141.504 30.6226 141.713 30.2886 141.755 29.7911L141.764 29.6864C141.873 28.3946 141.604 27.3609 140.958 26.5853C140.32 25.8105 139.29 25.3628 137.868 25.2423C136.393 25.1173 135.209 25.3423 134.316 25.9172C133.423 26.4921 132.776 27.1317 132.373 27.8361L129.529 26.5403C130.157 25.3627 130.935 24.4705 131.866 23.8636C132.806 23.2487 133.807 22.85 134.868 22.6674C135.939 22.4768 136.981 22.4244 137.994 22.5102C138.639 22.5649 139.375 22.7063 140.199 22.9344C141.033 23.1545 141.823 23.5334 142.569 24.0713C143.323 24.6099 143.922 25.3771 144.365 26.3728C144.808 27.3686 144.962 28.6651 144.827 30.2623L143.704 43.5117L140.615 43.25L140.845 40.5268L140.688 40.5135C140.442 40.9322 140.053 41.3696 139.522 41.8257C138.991 42.2818 138.305 42.65 137.464 42.9304C136.622 43.2108 135.617 43.3014 134.447 43.2023ZM135.154 40.4667C136.376 40.5702 137.426 40.4174 138.305 40.0083C139.192 39.6 139.882 39.0343 140.374 38.3111C140.874 37.5887 141.16 36.8086 141.231 35.9707L141.471 33.1427C141.327 33.2888 141.026 33.4084 140.57 33.5016C140.123 33.5868 139.608 33.6531 139.024 33.7003C138.449 33.7395 137.888 33.7711 137.341 33.7951C136.803 33.8111 136.367 33.8269 136.031 33.8424C135.22 33.8791 134.455 33.9857 133.736 34.1623C133.028 34.3308 132.44 34.6282 131.973 35.0546C131.516 35.473 131.254 36.0749 131.187 36.8605C131.096 37.934 131.424 38.7794 132.172 39.3966C132.929 40.0057 133.923 40.3624 135.154 40.4667Z" fill="black"/>
<path d="M147.388 44.8276L151.347 25.0379L154.285 25.6256L153.687 28.6147L153.893 28.6559C154.449 27.7489 155.261 27.085 156.328 26.6642C157.395 26.2434 158.521 26.1515 159.706 26.3887C159.93 26.4333 160.208 26.4935 160.541 26.5691C160.874 26.6447 161.125 26.7083 161.294 26.7598L160.675 29.852C160.577 29.8056 160.349 29.7197 159.989 29.5942C159.641 29.4619 159.265 29.3554 158.861 29.2746C157.899 29.0822 157 29.1122 156.163 29.3647C155.337 29.6103 154.634 30.0414 154.055 30.6581C153.486 31.2679 153.113 32.0195 152.934 32.9127L150.429 45.4359L147.388 44.8276Z" fill="black"/>
<path d="M166.115 51.2251C164.516 50.7034 163.236 49.8389 162.275 48.6317C161.318 47.4162 160.735 45.9545 160.528 44.2467C160.323 42.5305 160.552 40.6565 161.215 38.6247C161.873 36.6095 162.789 34.9735 163.964 33.7168C165.139 32.4601 166.474 31.6289 167.97 31.2234C169.466 30.8178 171.022 30.8786 172.637 31.4058C173.886 31.8134 174.805 32.3436 175.394 32.9963C175.994 33.6435 176.399 34.2919 176.611 34.9415C176.834 35.5855 176.999 36.1094 177.107 36.5132L177.357 36.5947L180.439 27.1515L183.386 28.1135L175.039 53.695L172.191 52.7656L173.153 49.8177L172.803 49.7036C172.472 49.9827 172.02 50.3235 171.446 50.726C170.876 51.1202 170.152 51.4046 169.275 51.5791C168.4 51.7453 167.347 51.6273 166.115 51.2251ZM167.378 48.7075C168.561 49.0933 169.661 49.1113 170.678 48.7614C171.698 48.4031 172.599 47.7437 173.383 46.7831C174.169 45.8142 174.798 44.6052 175.271 43.1563C175.739 41.724 175.939 40.4028 175.873 39.1927C175.81 37.9742 175.469 36.9321 174.848 36.0662C174.23 35.192 173.322 34.5593 172.123 34.168C170.874 33.7604 169.728 33.7413 168.686 34.1108C167.655 34.4746 166.754 35.134 165.981 36.089C165.22 37.0384 164.619 38.1877 164.179 39.5367C163.734 40.9024 163.537 42.2111 163.589 43.4628C163.652 44.7089 163.989 45.7954 164.599 46.7223C165.219 47.6436 166.146 48.3053 167.378 48.7075Z" fill="black"/>
<path d="M177.881 57.508L186.126 39.0872L188.956 40.3541L180.711 58.7748L177.881 57.508ZM188.939 36.6613C188.387 36.4143 187.996 36.0135 187.764 35.4588C187.541 34.9077 187.547 34.3683 187.783 33.8406C188.019 33.3129 188.417 32.9489 188.977 32.7485C189.545 32.5516 190.105 32.5767 190.657 32.8236C191.208 33.0705 191.596 33.4695 191.82 34.0206C192.051 34.5753 192.049 35.1165 191.813 35.6442C191.577 36.1719 191.174 36.5342 190.607 36.731C190.047 36.9314 189.491 36.9082 188.939 36.6613Z" fill="black"/>
<path d="M188.123 66.2632C187.014 65.6264 186.127 64.8395 185.463 63.9027C184.804 62.9582 184.437 61.9345 184.363 60.8316C184.294 59.7211 184.586 58.5961 185.241 57.4567C185.816 56.454 186.481 55.7546 187.233 55.3585C187.99 54.9548 188.802 54.7642 189.668 54.7867C190.534 54.8092 191.415 54.9621 192.313 55.2453C193.223 55.5254 194.115 55.8456 194.989 56.206C196.131 56.6799 197.052 57.0725 197.752 57.3836C198.464 57.6915 199.022 57.8453 199.427 57.8451C199.838 57.8492 200.169 57.6348 200.417 57.2018L200.469 57.1106C201.115 55.9864 201.309 54.9362 201.051 53.96C200.801 52.9881 200.057 52.1467 198.819 51.4357C197.535 50.6986 196.367 50.4017 195.315 50.545C194.263 50.6884 193.406 50.9941 192.743 51.462L190.715 49.0849C191.781 48.2831 192.864 47.8041 193.964 47.6478C195.076 47.4883 196.151 47.5503 197.19 47.8339C198.242 48.1142 199.208 48.5074 200.089 49.0134C200.651 49.3361 201.257 49.7753 201.908 50.3308C202.571 50.883 203.126 51.5605 203.574 52.3633C204.03 53.1704 204.248 54.1188 204.228 55.2085C204.209 56.2982 203.8 57.5381 203.002 58.9282L196.38 70.4592L193.691 68.9151L195.052 66.5451L194.915 66.4666C194.515 66.7417 193.978 66.9736 193.304 67.1623C192.63 67.351 191.852 67.3945 190.971 67.2927C190.09 67.1909 189.141 66.8477 188.123 66.2632ZM189.92 64.0832C190.984 64.6938 192 64.9997 192.969 65.0006C193.946 65.0059 194.81 64.785 195.562 64.3379C196.321 63.8951 196.91 63.3091 197.329 62.5799L198.742 60.1187C198.55 60.19 198.227 60.1714 197.774 60.0629C197.333 59.9511 196.838 59.7931 196.289 59.5888C195.752 59.3812 195.23 59.1726 194.724 58.9629C194.23 58.75 193.828 58.5797 193.518 58.4519C192.766 58.1418 192.028 57.9148 191.303 57.7709C190.589 57.6238 189.931 57.6447 189.327 57.8336C188.736 58.0192 188.244 58.4538 187.851 59.1375C187.315 60.0718 187.255 60.9767 187.671 61.8522C188.099 62.7245 188.849 63.4681 189.92 64.0832Z" fill="black"/>
<path d="M207.14 67.9726L199.751 77.6059L197.291 75.7188L209.573 59.7048L211.95 61.528L210.031 64.0302L210.24 64.1901C211.239 63.6648 212.31 63.4486 213.453 63.5415C214.601 63.6275 215.78 64.1342 216.989 65.0618C218.074 65.8935 218.852 66.8435 219.324 67.9121C219.801 68.9737 219.922 70.1261 219.686 71.3692C219.455 72.6054 218.818 73.9046 217.773 75.2669L209.968 85.4424L207.508 83.5553L215.184 73.5466C216.149 72.2885 216.574 71.0579 216.459 69.8548C216.35 68.6448 215.725 67.6026 214.585 66.7283C213.8 66.1259 212.967 65.7578 212.087 65.6239C211.215 65.4954 210.35 65.6218 209.495 66.0033C208.639 66.3848 207.854 67.0412 207.14 67.9726Z" fill="black"/>
<path d="M231.776 91.0262L229.248 89.6155C229.452 89.1632 229.588 88.6614 229.656 88.1101C229.736 87.5588 229.674 86.9766 229.469 86.3636C229.264 85.7505 228.843 85.1252 228.204 84.4876C227.331 83.6148 226.401 83.0888 225.416 82.9098C224.444 82.7307 223.651 82.948 223.038 83.5615C222.493 84.1069 222.262 84.7357 222.342 85.448C222.423 86.1602 222.78 87.0427 223.413 88.0952L225.012 90.7329C225.979 92.318 226.457 93.7423 226.445 95.0058C226.44 96.2632 225.939 97.3908 224.942 98.3886C224.125 99.2067 223.159 99.7027 222.044 99.8768C220.936 100.057 219.778 99.9153 218.569 99.4515C217.361 98.9877 216.203 98.2017 215.093 97.0937C213.637 95.639 212.747 94.1189 212.424 92.5335C212.101 90.948 212.419 89.4211 213.378 87.9525L215.981 89.5119C215.411 90.4784 215.211 91.4293 215.378 92.3645C215.552 93.3059 216.089 94.2253 216.987 95.1229C218.01 96.1443 219.039 96.7383 220.073 96.9049C221.12 97.0715 221.95 96.8481 222.563 96.2345C223.058 95.7387 223.299 95.1501 223.286 94.4688C223.28 93.7813 223 92.9949 222.449 92.1095L220.626 89.1746C219.628 87.5586 219.147 86.1188 219.183 84.8553C219.232 83.5917 219.749 82.4672 220.733 81.4818C221.538 80.6761 222.476 80.1893 223.547 80.0214C224.625 79.8598 225.734 79.9954 226.873 80.4283C228.02 80.8674 229.095 81.5883 230.099 82.5911C231.512 84.0025 232.312 85.4204 232.498 86.8449C232.691 88.2756 232.45 89.6693 231.776 91.0262Z" fill="black"/>
</g>
<defs>
<clipPath id="clip0_140_55">
<rect width="251.46" height="244.8" fill="white"/>
</clipPath>
<clipPath id="clip1_140_55">
<rect width="215.49" height="218.8" fill="white" transform="translate(13 26)"/>
</clipPath>
</defs>
</svg>
